<svg xmlns="http://www.w3.org/2000/svg" width="800" height="150" viewBox="0 0 800 150"><path fill="#000" d="M70.38 89.20L75.64 91.43Q73.62 95.75 70.10 98.42Q66.57 101.08 60.81 101.08L60.81 101.08Q57.93 101.08 54.72 99.96Q51.52 98.85 48.78 95.82Q46.05 92.80 44.25 87.54Q42.45 82.29 42.45 74.08L42.45 74.08Q42.45 66.02 44.18 60.76Q45.90 55.50 48.60 52.48Q51.30 49.46 54.54 48.27Q57.78 47.08 60.88 47.08L60.88 47.08Q63.69 47.08 65.96 47.80Q68.22 48.52 69.95 49.71Q71.68 50.90 72.94 52.48Q74.20 54.06 74.99 55.79L74.99 55.79L69.59 57.88Q68.44 54.93 66.39 53.42Q64.34 51.90 60.88 51.90L60.88 51.90Q58.43 51.90 56.24 52.95Q54.04 53.99 52.38 56.55Q50.73 59.10 49.76 63.35Q48.78 67.60 48.78 74.08L48.78 74.08Q48.78 80.49 49.79 84.74Q50.80 88.98 52.49 91.50Q54.18 94.02 56.38 95.10Q58.58 96.18 60.95 96.18L60.95 96.18Q64.91 96.18 67.00 94.20Q69.09 92.22 70.38 89.20L70.38 89.20ZM109.98 100L105.02 100L104.73 95.68Q103.14 97.84 100.59 99.28Q98.03 100.72 94.07 100.72L94.07 100.72Q91.98 100.72 89.86 100.11Q87.74 99.50 86.04 98.16Q84.35 96.83 83.27 94.74Q82.19 92.66 82.19 89.63L82.19 89.63Q82.19 83.30 87.41 79.62Q92.63 75.95 104.22 75.74L104.22 75.74L104.22 72.50Q104.22 69.04 102.53 66.77Q100.84 64.50 96.81 64.50L96.81 64.50Q93.71 64.50 91.66 66.05Q89.61 67.60 88.53 70.55L88.53 70.55L83.27 68.54Q85.00 64.65 88.46 62.34Q91.91 60.04 96.95 60.04L96.95 60.04Q100.26 60.04 102.71 60.94Q105.16 61.84 106.78 63.39Q108.40 64.94 109.19 67.06Q109.98 69.18 109.98 71.63L109.98 71.63L109.98 100ZM95.66 96.11L95.66 96.11Q98.39 96.11 100.48 94.89Q102.57 93.66 104.22 91.79L104.22 91.79L104.22 80.27Q95.94 80.42 92.06 82.61Q88.17 84.81 88.17 89.20L88.17 89.20Q88.17 92.87 90.36 94.49Q92.56 96.11 95.66 96.11ZM127.26 100L121.50 100L121.50 61.12L126.76 61.12L126.98 66.59Q128.42 63.35 130.65 61.77Q132.88 60.18 135.62 60.18L135.62 60.18Q136.62 60.18 137.34 60.26Q138.06 60.33 139.07 60.69L139.07 60.69L137.63 66.09Q136.98 65.94 136.30 65.84Q135.62 65.73 134.75 65.73L134.75 65.73Q133.31 65.73 132.20 66.34Q131.08 66.95 130.18 68.03Q129.28 69.11 128.56 70.52Q127.84 71.92 127.26 73.43L127.26 73.43L127.26 100ZM151.17 100L145.41 100L145.41 61.12L150.66 61.12L150.88 66.59Q152.32 63.35 154.55 61.77Q156.78 60.18 159.52 60.18L159.52 60.18Q160.53 60.18 161.25 60.26Q161.97 60.33 162.98 60.69L162.98 60.69L161.54 66.09Q160.89 65.94 160.20 65.84Q159.52 65.73 158.66 65.73L158.66 65.73Q157.22 65.73 156.10 66.34Q154.98 66.95 154.08 68.03Q153.18 69.11 152.46 70.52Q151.74 71.92 151.17 73.43L151.17 73.43L151.17 100ZM167.58 80.56L167.58 80.56Q167.58 74.58 168.99 70.62Q170.39 66.66 172.66 64.32Q174.93 61.98 177.77 61.01Q180.62 60.04 183.42 60.04L183.42 60.04Q186.16 60.04 188.97 60.98Q191.78 61.91 194.04 64.25Q196.31 66.59 197.75 70.55Q199.19 74.51 199.19 80.56L199.19 80.56Q199.19 86.61 197.79 90.50Q196.38 94.38 194.15 96.65Q191.92 98.92 189.08 99.82Q186.23 100.72 183.42 100.72L183.42 100.72Q180.69 100.72 177.84 99.82Q175.00 98.92 172.73 96.62Q170.46 94.31 169.02 90.42Q167.58 86.54 167.58 80.56ZM173.63 80.56L173.63 80.56Q173.63 88.77 176.33 92.51Q179.03 96.26 183.50 96.26L183.50 96.26Q187.96 96.26 190.59 92.58Q193.22 88.91 193.22 80.56L193.22 80.56Q193.22 76.38 192.50 73.36Q191.78 70.34 190.48 68.36Q189.18 66.38 187.38 65.44Q185.58 64.50 183.42 64.50L183.42 64.50Q179.18 64.50 176.40 68.43Q173.63 72.35 173.63 80.56ZM215.68 54.06L209.06 54.06L209.06 47.08L215.68 47.08L215.68 54.06ZM215.25 100L209.49 100L209.49 61.12L215.25 61.12L215.25 100ZM236.63 100.72L236.63 100.72Q231.81 100.72 228.53 98.85Q225.26 96.98 223.31 93.30L223.31 93.30L228.35 90.71Q229.36 93.02 231.63 94.49Q233.90 95.97 236.78 95.97L236.78 95.97Q238.22 95.97 239.58 95.57Q240.95 95.18 242.03 94.35Q243.11 93.52 243.76 92.33Q244.41 91.14 244.41 89.49L244.41 89.49Q244.41 87.40 243.58 86.14Q242.75 84.88 241.38 84.05Q240.02 83.22 238.25 82.72Q236.49 82.22 234.69 81.64L234.69 81.64Q229.58 80.06 227.20 77.43Q224.82 74.80 224.82 70.91L224.82 70.91Q224.82 68.25 225.83 66.23Q226.84 64.22 228.57 62.85Q230.30 61.48 232.53 60.76Q234.76 60.04 237.21 60.04L237.21 60.04Q241.96 60.04 245.24 61.98Q248.51 63.93 249.95 67.38L249.95 67.38L244.84 69.54Q243.83 67.17 242.07 65.84Q240.30 64.50 237.14 64.50L237.14 64.50Q235.84 64.50 234.69 64.86Q233.54 65.22 232.60 65.91Q231.66 66.59 231.12 67.67Q230.58 68.75 230.58 70.26L230.58 70.26Q230.58 71.78 231.12 72.86Q231.66 73.94 232.78 74.73Q233.90 75.52 235.66 76.17Q237.42 76.82 239.80 77.54L239.80 77.54Q244.55 78.98 247.40 81.60Q250.24 84.23 250.24 88.91L250.24 88.91Q250.24 91.58 249.23 93.74Q248.22 95.90 246.42 97.44Q244.62 98.99 242.10 99.86Q239.58 100.72 236.63 100.72ZM313.02 71.42L313.02 100L308.27 100L307.91 96.76Q305.97 98.99 303.34 100Q300.71 101.01 297.83 101.01L297.83 101.01Q294.23 101.01 291.10 99.64Q287.97 98.27 285.63 95.14Q283.29 92.01 281.92 86.82Q280.55 81.64 280.55 74.01L280.55 74.01Q280.55 66.30 282.10 61.12Q283.65 55.94 286.24 52.80Q288.83 49.67 292.18 48.34Q295.53 47.01 299.13 47.01L299.13 47.01Q304.46 47.01 307.77 49.13Q311.08 51.26 312.95 55.14L312.95 55.14L307.77 57.52Q306.54 54.78 304.60 53.24Q302.66 51.69 299.34 51.69L299.34 51.69Q296.54 51.69 294.20 52.91Q291.86 54.14 290.24 56.80Q288.62 59.46 287.72 63.71Q286.82 67.96 286.82 74.01L286.82 74.01Q286.82 80.42 287.64 84.66Q288.47 88.91 290.06 91.50Q291.64 94.10 293.80 95.18Q295.96 96.26 298.70 96.26L298.70 96.26Q304.67 96.26 307.55 91.94L307.55 91.94L307.55 76.31L298.70 76.31L298.70 71.42L313.02 71.42ZM323.10 80.56L323.10 80.56Q323.10 74.58 324.51 70.62Q325.91 66.66 328.18 64.32Q330.45 61.98 333.29 61.01Q336.14 60.04 338.94 60.04L338.94 60.04Q341.68 60.04 344.49 60.98Q347.30 61.91 349.56 64.25Q351.83 66.59 353.27 70.55Q354.71 74.51 354.71 80.56L354.71 80.56Q354.71 86.61 353.31 90.50Q351.90 94.38 349.67 96.65Q347.44 98.92 344.60 99.82Q341.75 100.72 338.94 100.72L338.94 100.72Q336.21 100.72 333.36 99.82Q330.52 98.92 328.25 96.62Q325.98 94.31 324.54 90.42Q323.10 86.54 323.10 80.56ZM329.15 80.56L329.15 80.56Q329.15 88.77 331.85 92.51Q334.55 96.26 339.02 96.26L339.02 96.26Q343.48 96.26 346.11 92.58Q348.74 88.91 348.74 80.56L348.74 80.56Q348.74 76.38 348.02 73.36Q347.30 70.34 346 68.36Q344.70 66.38 342.90 65.44Q341.10 64.50 338.94 64.50L338.94 64.50Q334.70 64.50 331.92 68.43Q329.15 72.35 329.15 80.56ZM380.78 94.89L382.22 99.28Q379.48 100.43 376.10 100.43L376.10 100.43Q371.34 100.43 368.90 97.84Q366.45 95.25 366.45 90.71L366.45 90.71L366.45 65.80L360.33 65.80L361.05 61.12L366.52 61.12L366.88 51.76L372.21 51.76L372.21 61.12L380.56 61.12L380.56 65.80L372.21 65.80L372.21 90.42Q372.21 93.30 373.50 94.46Q374.80 95.61 377.03 95.61L377.03 95.61Q378.11 95.61 378.87 95.43Q379.62 95.25 380.78 94.89L380.78 94.89ZM394.82 100L389.06 100L389.06 47.08L394.82 47.08L394.82 65.94Q397.12 62.78 400.04 61.41Q402.95 60.04 405.69 60.04L405.69 60.04Q408.21 60.04 410.30 60.76Q412.38 61.48 413.86 63.06Q415.34 64.65 416.16 67.24Q416.99 69.83 416.99 73.58L416.99 73.58L416.99 100L411.23 100L411.23 74.51Q411.23 71.70 410.80 69.80Q410.37 67.89 409.54 66.77Q408.71 65.66 407.42 65.19Q406.12 64.72 404.39 64.72L404.39 64.72Q401.51 64.72 399.14 66.45Q396.76 68.18 394.82 71.20L394.82 71.20L394.82 100ZM434.70 54.06L428.08 54.06L428.08 47.08L434.70 47.08L434.70 54.06ZM434.27 100L428.51 100L428.51 61.12L434.27 61.12L434.27 100ZM450.62 80.49L450.62 80.49Q450.62 88.70 453.28 92.44Q455.94 96.18 460.41 96.18L460.41 96.18Q463.50 96.18 465.52 94.71Q467.54 93.23 469.41 90.14L469.41 90.14L474.09 93.16Q472.00 96.47 468.58 98.70Q465.16 100.94 460.34 100.94L460.34 100.94Q457.10 100.94 454.25 99.82Q451.41 98.70 449.25 96.26Q447.09 93.81 445.83 89.96Q444.57 86.10 444.57 80.63L444.57 80.63Q444.57 75.30 445.79 71.42Q447.02 67.53 449.18 65.01Q451.34 62.49 454.25 61.26Q457.17 60.04 460.55 60.04L460.55 60.04Q464.66 60.04 467.68 61.44Q470.70 62.85 473.30 66.30L473.30 66.30L468.83 69.54Q466.96 66.81 465.05 65.73Q463.14 64.65 460.55 64.65L460.55 64.65Q456.09 64.65 453.35 68.46Q450.62 72.28 450.62 80.49ZM503.68 76.24L503.68 76.24Q503.68 69.69 504.58 64.54Q505.48 59.39 506.96 55.25Q508.43 51.11 510.30 47.76Q512.18 44.42 514.19 41.32L514.19 41.32L518.08 43.12Q516.28 46.43 514.66 49.82Q513.04 53.20 511.82 57.09Q510.59 60.98 509.87 65.66Q509.15 70.34 509.15 76.24L509.15 76.24Q509.15 82.22 509.87 86.86Q510.59 91.50 511.82 95.39Q513.04 99.28 514.66 102.66Q516.28 106.05 518.08 109.36L518.08 109.36L514.19 111.16Q512.18 108.06 510.30 104.72Q508.43 101.37 506.96 97.23Q505.48 93.09 504.58 87.98Q503.68 82.86 503.68 76.24ZM534.28 100L528.52 100L528.52 61.12L533.78 61.12L533.99 66.59Q535.43 63.35 537.66 61.77Q539.90 60.18 542.63 60.18L542.63 60.18Q543.64 60.18 544.36 60.26Q545.08 60.33 546.09 60.69L546.09 60.69L544.65 66.09Q544.00 65.94 543.32 65.84Q542.63 65.73 541.77 65.73L541.77 65.73Q540.33 65.73 539.21 66.34Q538.10 66.95 537.20 68.03Q536.30 69.11 535.58 70.52Q534.86 71.92 534.28 73.43L534.28 73.43L534.28 100ZM575.61 90.64L580.14 93.45Q578.27 96.40 574.89 98.56Q571.50 100.72 566.46 100.72L566.46 100.72Q562.94 100.72 560.06 99.53Q557.18 98.34 555.09 95.90Q553.00 93.45 551.85 89.74Q550.70 86.03 550.70 80.92L550.70 80.92Q550.70 75.45 551.88 71.49Q553.07 67.53 555.20 64.97Q557.32 62.42 560.16 61.23Q563.01 60.04 566.25 60.04L566.25 60.04Q569.85 60.04 572.55 61.23Q575.25 62.42 577.05 65.04Q578.85 67.67 579.75 71.78Q580.65 75.88 580.65 81.71L580.65 81.71L556.60 81.71Q556.67 85.82 557.50 88.59Q558.33 91.36 559.70 93.02Q561.06 94.67 562.90 95.39Q564.74 96.11 566.82 96.11L566.82 96.11Q568.55 96.11 569.96 95.57Q571.36 95.03 572.44 94.24Q573.52 93.45 574.31 92.48Q575.10 91.50 575.61 90.64L575.61 90.64ZM566.25 64.50L566.25 64.50Q562.22 64.50 559.77 67.53Q557.32 70.55 556.74 77.10L556.74 77.10L574.67 77.10Q574.53 73.58 573.92 71.16Q573.30 68.75 572.22 67.28Q571.14 65.80 569.67 65.15Q568.19 64.50 566.25 64.50ZM617.58 57.38L618.30 62.92L609.81 62.92Q612.76 64.14 614.67 66.66Q616.58 69.18 616.58 73.29L616.58 73.29Q616.58 76.67 615.32 79.12Q614.06 81.57 612.04 83.15Q610.02 84.74 607.50 85.49Q604.98 86.25 602.54 86.25L602.54 86.25Q601.02 86.25 599.44 85.96Q597.86 85.67 596.34 85.10L596.34 85.10Q594.76 86.46 594.76 87.76L594.76 87.76Q594.76 88.41 595.01 88.98Q595.26 89.56 596.06 89.99Q596.85 90.42 598.43 90.75Q600.02 91.07 602.75 91.22L602.75 91.22Q606.42 91.43 609.38 92.04Q612.33 92.66 614.42 93.95Q616.50 95.25 617.62 97.26Q618.74 99.28 618.74 102.30L618.74 102.30Q618.74 104.54 617.69 106.66Q616.65 108.78 614.60 110.48Q612.54 112.17 609.45 113.18Q606.35 114.18 602.25 114.18L602.25 114.18Q594.90 114.18 591.02 111.38Q587.13 108.57 587.13 103.96L587.13 103.96Q587.13 100.72 588.86 98.38Q590.58 96.04 593.32 94.60L593.32 94.60Q591.45 93.66 590.69 92.30Q589.94 90.93 589.94 89.27L589.94 89.27Q589.94 87.18 590.98 85.82Q592.02 84.45 593.68 83.66L593.68 83.66Q591.38 82.07 589.83 79.52Q588.28 76.96 588.28 73.29L588.28 73.29Q588.28 69.98 589.54 67.49Q590.80 65.01 592.89 63.35Q594.98 61.70 597.60 60.87Q600.23 60.04 602.97 60.04L602.97 60.04L617.58 57.38ZM594.04 73.29L594.04 73.29Q594.04 77.32 596.34 79.70Q598.65 82.07 602.54 82.07L602.54 82.07Q606.42 82.07 608.62 79.70Q610.82 77.32 610.82 73.29L610.82 73.29Q610.82 69.26 608.76 66.74Q606.71 64.22 602.90 64.22L602.90 64.22Q600.95 64.22 599.33 64.86Q597.71 65.51 596.52 66.70Q595.34 67.89 594.69 69.58Q594.04 71.27 594.04 73.29ZM600.45 96.26L600.45 96.26Q599.30 96.18 598.36 96.04Q597.42 95.90 596.56 95.75L596.56 95.75Q594.90 97.12 593.90 98.81Q592.89 100.50 592.89 103.02L592.89 103.02Q592.89 104.39 593.36 105.69Q593.82 106.98 594.90 108.03Q595.98 109.07 597.75 109.68Q599.51 110.30 602.18 110.30L602.18 110.30Q605.27 110.30 607.29 109.50Q609.30 108.71 610.49 107.56Q611.68 106.41 612.15 105.08Q612.62 103.74 612.62 102.66L612.62 102.66Q612.62 101.30 612.15 100.22Q611.68 99.14 610.38 98.38Q609.09 97.62 606.71 97.08Q604.34 96.54 600.45 96.26ZM648.33 61.12L654.09 61.12L654.09 100L649.05 100L648.76 95.39Q647.10 97.91 644.58 99.32Q642.06 100.72 639.11 100.72L639.11 100.72Q636.52 100.72 634.29 100.04Q632.06 99.35 630.44 97.73Q628.82 96.11 627.92 93.45Q627.02 90.78 627.02 86.90L627.02 86.90L627.02 61.12L632.78 61.12L632.78 86.46Q632.78 89.34 633.32 91.18Q633.86 93.02 634.79 94.10Q635.73 95.18 637.06 95.61Q638.39 96.04 640.05 96.04L640.05 96.04Q642.71 96.04 644.69 94.53Q646.67 93.02 648.33 90.06L648.33 90.06L648.33 61.12ZM666.26 100L666.26 51.76L660.93 51.76L661.65 47.08L672.02 47.08L672.02 100L666.26 100ZM708.45 100L703.48 100L703.19 95.68Q701.61 97.84 699.05 99.28Q696.50 100.72 692.54 100.72L692.54 100.72Q690.45 100.72 688.32 100.11Q686.20 99.50 684.51 98.16Q682.82 96.83 681.74 94.74Q680.66 92.66 680.66 89.63L680.66 89.63Q680.66 83.30 685.88 79.62Q691.10 75.95 702.69 75.74L702.69 75.74L702.69 72.50Q702.69 69.04 701.00 66.77Q699.30 64.50 695.27 64.50L695.27 64.50Q692.18 64.50 690.12 66.05Q688.07 67.60 686.99 70.55L686.99 70.55L681.74 68.54Q683.46 64.65 686.92 62.34Q690.38 60.04 695.42 60.04L695.42 60.04Q698.73 60.04 701.18 60.94Q703.62 61.84 705.24 63.39Q706.86 64.94 707.66 67.06Q708.45 69.18 708.45 71.63L708.45 71.63L708.45 100ZM694.12 96.11L694.12 96.11Q696.86 96.11 698.94 94.89Q701.03 93.66 702.69 91.79L702.69 91.79L702.69 80.27Q694.41 80.42 690.52 82.61Q686.63 84.81 686.63 89.20L686.63 89.20Q686.63 92.87 688.83 94.49Q691.02 96.11 694.12 96.11ZM725.73 100L719.97 100L719.97 61.12L725.22 61.12L725.44 66.59Q726.88 63.35 729.11 61.77Q731.34 60.18 734.08 60.18L734.08 60.18Q735.09 60.18 735.81 60.26Q736.53 60.33 737.54 60.69L737.54 60.69L736.10 66.09Q735.45 65.94 734.76 65.84Q734.08 65.73 733.22 65.73L733.22 65.73Q731.78 65.73 730.66 66.34Q729.54 66.95 728.64 68.03Q727.74 69.11 727.02 70.52Q726.30 71.92 725.73 73.43L725.73 73.43L725.73 100ZM757.19 76.24L757.19 76.24Q757.19 82.86 756.29 87.98Q755.39 93.09 753.92 97.23Q752.44 101.37 750.57 104.72Q748.70 108.06 746.68 111.16L746.68 111.16L742.79 109.36Q744.59 106.05 746.21 102.66Q747.83 99.28 749.06 95.39Q750.28 91.50 751.00 86.86Q751.72 82.22 751.72 76.24L751.72 76.24Q751.72 70.34 751.00 65.66Q750.28 60.98 749.06 57.09Q747.83 53.20 746.21 49.82Q744.59 46.43 742.79 43.12L742.79 43.12L746.68 41.32Q748.70 44.42 750.57 47.76Q752.44 51.11 753.92 55.25Q755.39 59.39 756.29 64.54Q757.19 69.69 757.19 76.24Z"/></svg>