<svg xmlns="http://www.w3.org/2000/svg" width="800" height="150" viewBox="0 0 800 150"><path fill="#000" d="M21.70 98.58L51.10 56.08L34.10 56.08Q25.24 56.08 25.24 64.22L25.24 64.22L23.83 64.22L23.83 58.91Q23.83 53.24 29.85 53.24L29.85 53.24L60.66 53.24L30.56 97.17L59.60 97.17L59.60 100L21.70 100L21.70 98.58ZM85.67 101.42Q79.08 101.42 74.09 98.23Q69.09 95.04 66.40 89.55Q63.71 84.06 63.71 77.33L63.71 77.33Q63.71 70.39 66.65 64.51Q69.59 58.63 74.66 55.23Q79.72 51.83 85.67 51.83L85.67 51.83Q91.34 51.83 95.62 53.42Q99.91 55.01 101.96 57.49L101.96 57.49Q103.17 58.98 103.45 61.43Q103.74 63.87 103.74 68.12L103.74 68.12L102.32 68.12Q100.97 61.25 97.36 57.95Q93.75 54.66 87.80 54.66L87.80 54.66Q80.15 54.66 75.47 60.04Q70.79 65.43 70.79 77.33L70.79 77.33Q70.79 82.93 72.60 87.74Q74.41 92.56 78.23 95.57Q82.06 98.58 87.80 98.58L87.80 98.58Q92.97 98.58 96.83 96.10Q100.69 93.62 103.74 88.67L103.74 88.67L105.15 89.73Q101.89 96.10 97.11 98.76Q92.33 101.42 85.67 101.42L85.67 101.42ZM132.92 101.42Q126.33 101.42 121.34 98.16Q116.35 94.90 113.65 89.23Q110.96 83.56 110.96 76.62L110.96 76.62Q110.96 69.68 113.65 64.01Q116.35 58.34 121.34 55.09Q126.33 51.83 132.92 51.83L132.92 51.83Q139.51 51.83 144.51 55.09Q149.50 58.34 152.19 64.01Q154.88 69.68 154.88 76.62L154.88 76.62Q154.88 83.56 152.19 89.23Q149.50 94.90 144.51 98.16Q139.51 101.42 132.92 101.42L132.92 101.42ZM132.92 98.58Q137.53 98.58 140.89 95.89Q144.26 93.20 146.03 88.28Q147.80 83.35 147.80 76.62L147.80 76.62Q147.80 69.89 146.03 64.97Q144.26 60.04 140.89 57.35Q137.53 54.66 132.92 54.66L132.92 54.66Q128.32 54.66 124.95 57.35Q121.59 60.04 119.82 64.97Q118.05 69.89 118.05 76.62L118.05 76.62Q118.05 83.35 119.82 88.28Q121.59 93.20 124.95 95.89Q128.32 98.58 132.92 98.58L132.92 98.58ZM183.36 101.42Q176.77 101.42 171.78 98.16Q166.79 94.90 164.09 89.23Q161.40 83.56 161.40 76.62L161.40 76.62Q161.40 69.68 164.09 64.01Q166.79 58.34 171.78 55.09Q176.77 51.83 183.36 51.83L183.36 51.83Q189.95 51.83 194.95 55.09Q199.94 58.34 202.63 64.01Q205.32 69.68 205.32 76.62L205.32 76.62Q205.32 83.56 202.63 89.23Q199.94 94.90 194.95 98.16Q189.95 101.42 183.36 101.42L183.36 101.42ZM183.36 98.58Q187.97 98.58 191.33 95.89Q194.70 93.20 196.47 88.28Q198.24 83.35 198.24 76.62L198.24 76.62Q198.24 69.89 196.47 64.97Q194.70 60.04 191.33 57.35Q187.97 54.66 183.36 54.66L183.36 54.66Q178.76 54.66 175.39 57.35Q172.03 60.04 170.26 64.97Q168.49 69.89 168.49 76.62L168.49 76.62Q168.49 83.35 170.26 88.28Q172.03 93.20 175.39 95.89Q178.76 98.58 183.36 98.58L183.36 98.58ZM215.60 61.74Q215.60 58.13 214.60 56.40Q213.61 54.66 210.64 54.66L210.64 54.66L209.22 54.66L209.22 53.24L215.60 53.24Q218.22 53.24 219.53 53.92Q220.84 54.59 221.41 56.36Q221.97 58.13 221.97 61.74L221.97 61.74L221.97 97.17L247.12 97.17L247.12 100L215.60 100L215.60 61.74ZM285.94 76.98L276.03 62.45Q274.33 59.97 273.05 58.52Q271.77 57.07 269.72 55.94Q267.67 54.80 264.69 54.66L264.69 54.66L264.69 53.24L273.19 53.24Q276.31 53.24 278.43 55.26Q280.56 57.28 283.11 61.04L283.11 61.04L290.19 71.66L304.36 53.24L307.90 53.24L291.96 74.14L303.30 90.79Q305.50 94.05 308.01 96.21Q310.53 98.37 313.57 98.58L313.57 98.58L313.57 100L306.13 100Q303.09 100 300.75 97.84Q298.41 95.68 296.22 92.21L296.22 92.21L287.71 79.46L271.77 100L268.23 100L285.94 76.98ZM321.44 62.45Q319.81 62.45 318.64 61.11Q317.47 59.76 317.47 57.92L317.47 57.92Q317.47 56.43 318.35 55.58Q319.24 54.73 320.73 54.73L320.73 54.73Q322.36 54.73 323.53 56.08Q324.69 57.42 324.69 59.27L324.69 59.27Q324.69 60.75 323.81 61.60Q322.92 62.45 321.44 62.45L321.44 62.45ZM318.74 75.21Q318.74 71.59 317.75 69.86Q316.76 68.12 313.78 68.12L313.78 68.12L312.37 68.12L312.37 66.70L318.74 66.70Q321.36 66.70 322.68 67.38Q323.99 68.05 324.55 69.82Q325.12 71.59 325.12 75.21L325.12 75.21L325.12 100L318.74 100L318.74 75.21ZM343.04 100.71Q340.78 100.71 338.44 99.75Q336.10 98.80 334.44 96.60Q332.77 94.40 332.77 90.79L332.77 90.79Q332.77 85.41 337.76 83.14Q342.76 80.87 350.84 80.87L350.84 80.87L352.96 80.87Q352.96 73.93 351.05 71.38Q349.13 68.83 345.52 68.83L345.52 68.83Q342.33 68.83 340.42 70.18Q338.51 71.52 337.73 74.85L337.73 74.85L334.54 74.85Q334.54 72.44 334.82 71.06Q335.11 69.68 336.31 68.48L336.31 68.48Q337.59 67.20 340.53 66.60Q343.47 66.00 346.94 66.00L346.94 66.00Q352.68 66.00 356.01 69.08Q359.34 72.16 359.34 80.87L359.34 80.87L359.34 100L355.79 100L353.31 96.81L352.96 96.81Q351.69 98.44 349.21 99.57Q346.73 100.71 343.04 100.71L343.04 100.71ZM346.23 97.52Q348.57 97.52 350.13 96.39Q351.69 95.25 352.96 93.27L352.96 93.27L352.96 83.71L350.84 83.71Q345.59 83.71 342.55 85.65Q339.50 87.60 339.50 90.79L339.50 90.79Q339.50 94.05 341.45 95.78Q343.40 97.52 346.23 97.52L346.23 97.52ZM382.86 100.71Q378.04 100.71 374.50 98.41Q370.95 96.10 369.11 92.14Q367.27 88.17 367.27 83.35L367.27 83.35Q367.27 78.53 369.11 74.57Q370.95 70.60 374.50 68.30Q378.04 66.00 382.86 66.00L382.86 66.00Q387.67 66.00 391.22 68.30Q394.76 70.60 396.60 74.57Q398.44 78.53 398.44 83.35L398.44 83.35Q398.44 88.17 396.60 92.14Q394.76 96.10 391.22 98.41Q387.67 100.71 382.86 100.71L382.86 100.71ZM382.86 97.87Q385.48 97.87 387.50 95.96Q389.52 94.05 390.61 90.72Q391.71 87.39 391.71 83.35L391.71 83.35Q391.71 79.31 390.61 75.98Q389.52 72.65 387.50 70.74Q385.48 68.83 382.86 68.83L382.86 68.83Q380.23 68.83 378.22 70.74Q376.20 72.65 375.10 75.98Q374.00 79.31 374.00 83.35L374.00 83.35Q374.00 87.39 375.10 90.72Q376.20 94.05 378.22 95.96Q380.23 97.87 382.86 97.87L382.86 97.87ZM402.83 61.53Q401.42 57.42 399.82 55.90Q398.23 54.38 395.04 54.09L395.04 54.09L395.04 52.68Q395.40 52.68 396.07 52.61Q396.74 52.54 397.45 52.54L397.45 52.54Q401.35 52.54 404.50 54.31Q407.65 56.08 409.56 61.53L409.56 61.53L419.06 88.88L426.64 66.42L424.94 61.53Q423.52 57.42 421.93 55.90Q420.33 54.38 417.14 54.09L417.14 54.09L417.14 52.68Q417.50 52.68 418.17 52.61Q418.84 52.54 419.55 52.54L419.55 52.54Q423.45 52.54 426.60 54.31Q429.75 56.08 431.67 61.53L431.67 61.53L441.16 88.88L453.27 53.24L456.32 53.24L440.10 100.71L438.68 100.71L428.20 70.88L417.99 100.71L416.58 100.71L402.83 61.53ZM472.47 100.71Q467.65 100.71 464.33 98.41Q461.00 96.10 459.30 92.17Q457.60 88.24 457.60 83.35L457.60 83.35Q457.60 78.53 459.30 74.57Q461.00 70.60 464.22 68.30Q467.44 66.00 471.76 66.00L471.76 66.00Q478.92 66.00 482.43 70.00Q485.93 74.00 485.93 81.58L485.93 81.58L485.79 84.41L464.33 84.41Q464.33 90.37 466.88 94.12Q469.43 97.87 473.89 97.87L473.89 97.87Q477.22 97.87 479.52 96.46Q481.82 95.04 483.81 92.21L483.81 92.21L485.22 93.27Q482.89 97.17 479.77 98.94Q476.65 100.71 472.47 100.71L472.47 100.71ZM479.20 81.58Q479.20 75.35 477.36 72.09Q475.52 68.83 471.76 68.83L471.76 68.83Q469.64 68.83 467.94 70.49Q466.24 72.16 465.28 75.06Q464.33 77.97 464.33 81.58L464.33 81.58L479.20 81.58ZM497.83 62.45Q496.20 62.45 495.04 61.11Q493.87 59.76 493.87 57.92L493.87 57.92Q493.87 56.43 494.75 55.58Q495.64 54.73 497.13 54.73L497.13 54.73Q498.75 54.73 499.92 56.08Q501.09 57.42 501.09 59.27L501.09 59.27Q501.09 60.75 500.21 61.60Q499.32 62.45 497.83 62.45L497.83 62.45ZM495.14 75.21Q495.14 71.59 494.15 69.86Q493.16 68.12 490.18 68.12L490.18 68.12L488.77 68.12L488.77 66.70L495.14 66.70Q497.76 66.70 499.07 67.38Q500.38 68.05 500.95 69.82Q501.52 71.59 501.52 75.21L501.52 75.21L501.52 100L495.14 100L495.14 75.21ZM544.24 114.88Q535.31 108.15 530.92 100.67Q526.52 93.20 526.52 83.00L526.52 83.00Q526.52 72.80 530.92 65.32Q535.31 57.85 544.24 51.12L544.24 51.12L544.94 52.18Q532.90 62.74 532.90 83.00L532.90 83.00Q532.90 103.26 544.94 113.81L544.94 113.81L544.24 114.88ZM551.67 75.21Q551.67 71.59 550.68 69.86Q549.69 68.12 546.72 68.12L546.72 68.12L546.01 68.12L546.01 66.70L551.67 66.70Q554.37 66.70 555.75 67.45Q557.13 68.19 557.70 69.89L557.70 69.89L558.05 69.89Q559.33 68.26 561.49 67.13Q563.65 66.00 566.55 66.00L566.55 66.00Q569.38 66.00 570.80 67.06L570.80 67.06Q572.01 67.98 573.28 70.25L573.28 70.25L570.45 72.37Q569.67 71.31 568.18 70.78Q566.69 70.25 564.78 70.25L564.78 70.25Q562.65 70.25 560.88 71.20Q559.11 72.16 558.05 73.79L558.05 73.79L558.05 100L551.67 100L551.67 75.21ZM591.56 100.71Q586.74 100.71 583.41 98.41Q580.08 96.10 578.38 92.17Q576.68 88.24 576.68 83.35L576.68 83.35Q576.68 78.53 578.38 74.57Q580.08 70.60 583.31 68.30Q586.53 66.00 590.85 66.00L590.85 66.00Q598.01 66.00 601.51 70.00Q605.02 74.00 605.02 81.58L605.02 81.58L604.88 84.41L583.41 84.41Q583.41 90.37 585.96 94.12Q588.51 97.87 592.98 97.87L592.98 97.87Q596.30 97.87 598.61 96.46Q600.91 95.04 602.89 92.21L602.89 92.21L604.31 93.27Q601.97 97.17 598.86 98.94Q595.74 100.71 591.56 100.71L591.56 100.71ZM598.29 81.58Q598.29 75.35 596.45 72.09Q594.60 68.83 590.85 68.83L590.85 68.83Q588.72 68.83 587.02 70.49Q585.32 72.16 584.37 75.06Q583.41 77.97 583.41 81.58L583.41 81.58L598.29 81.58ZM625.49 114.17Q618.34 114.17 614.12 111.55Q609.91 108.93 609.91 103.19L609.91 103.19Q609.91 99.93 612.10 97.52Q614.30 95.11 617.70 93.98L617.70 93.98Q614.87 92.42 614.87 89.73L614.87 89.73Q614.87 88.31 615.50 87.53Q616.14 86.75 617.35 85.83L617.35 85.83Q615.08 84.70 613.56 82.29Q612.03 79.88 612.03 76.62L612.03 76.62Q612.03 66.00 625.49 66.00L625.49 66.00L638.60 66.00L638.60 67.77L633.99 68.48L633.99 68.83Q636.19 69.96 637.57 71.98Q638.95 74.00 638.95 76.62L638.95 76.62Q638.95 87.25 625.49 87.25L625.49 87.25Q618.05 87.25 618.05 89.73L618.05 89.73Q618.05 92.21 625.49 92.21L625.49 92.21Q632.36 92.21 636.72 94.93Q641.08 97.66 641.08 103.19L641.08 103.19Q641.08 108.93 636.86 111.55Q632.65 114.17 625.49 114.17L625.49 114.17ZM625.49 84.77Q628.68 84.77 630.63 82.82Q632.58 80.87 632.58 76.62L632.58 76.62Q632.58 72.58 630.63 70.53Q628.68 68.48 625.49 68.48L625.49 68.48Q622.30 68.48 620.36 70.42Q618.41 72.37 618.41 76.62L618.41 76.62Q618.41 80.87 620.36 82.82Q622.30 84.77 625.49 84.77L625.49 84.77ZM625.49 111.33Q629.74 111.33 632.22 109.32Q634.70 107.30 634.70 103.19L634.70 103.19Q634.70 96.10 626.20 95.04L626.20 95.04L622.30 94.69Q619.40 95.82 617.84 97.87Q616.28 99.93 616.28 103.19L616.28 103.19Q616.28 107.30 618.76 109.32Q621.24 111.33 625.49 111.33L625.49 111.33ZM660.13 100.71Q654.82 100.71 651.46 97.87Q648.09 95.04 648.09 87.96L648.09 87.96L648.09 75.21Q648.09 71.59 647.10 69.86Q646.11 68.12 643.13 68.12L643.13 68.12L642.42 68.12L642.42 66.70L648.09 66.70Q650.71 66.70 652.02 67.38Q653.33 68.05 653.90 69.82Q654.47 71.59 654.47 75.21L654.47 75.21L654.47 87.96Q654.47 92.92 656.70 95.22Q658.93 97.52 662.26 97.52L662.26 97.52Q666.01 97.52 669.34 93.77L669.34 93.77L669.34 66.70L675.72 66.70L675.72 100L672.18 100L669.70 97.17L669.34 97.17Q667.86 98.65 665.48 99.68Q663.11 100.71 660.13 100.71L660.13 100.71ZM686.20 61.74Q686.20 58.13 685.21 56.40Q684.22 54.66 681.25 54.66L681.25 54.66L679.83 54.66L679.83 53.24L686.20 53.24Q688.83 53.24 690.14 53.92Q691.45 54.59 692.01 56.36Q692.58 58.13 692.58 61.74L692.58 61.74L692.58 100L686.20 100L686.20 61.74ZM711.00 100.71Q708.73 100.71 706.39 99.75Q704.06 98.80 702.39 96.60Q700.73 94.40 700.73 90.79L700.73 90.79Q700.73 85.41 705.72 83.14Q710.72 80.87 718.79 80.87L718.79 80.87L720.92 80.87Q720.92 73.93 719.00 71.38Q717.09 68.83 713.48 68.83L713.48 68.83Q710.29 68.83 708.38 70.18Q706.47 71.52 705.69 74.85L705.69 74.85L702.50 74.85Q702.50 72.44 702.78 71.06Q703.06 69.68 704.27 68.48L704.27 68.48Q705.54 67.20 708.48 66.60Q711.42 66.00 714.90 66.00L714.90 66.00Q720.63 66.00 723.96 69.08Q727.29 72.16 727.29 80.87L727.29 80.87L727.29 100L723.75 100L721.27 96.81L720.92 96.81Q719.64 98.44 717.16 99.57Q714.68 100.71 711.00 100.71L711.00 100.71ZM714.19 97.52Q716.52 97.52 718.08 96.39Q719.64 95.25 720.92 93.27L720.92 93.27L720.92 83.71L718.79 83.71Q713.55 83.71 710.50 85.65Q707.46 87.60 707.46 90.79L707.46 90.79Q707.46 94.05 709.41 95.78Q711.35 97.52 714.19 97.52L714.19 97.52ZM737.71 75.21Q737.71 71.59 736.72 69.86Q735.72 68.12 732.75 68.12L732.75 68.12L732.04 68.12L732.04 66.70L737.71 66.70Q740.40 66.70 741.78 67.45Q743.16 68.19 743.73 69.89L743.73 69.89L744.08 69.89Q745.36 68.26 747.52 67.13Q749.68 66.00 752.58 66.00L752.58 66.00Q755.42 66.00 756.83 67.06L756.83 67.06Q758.04 67.98 759.31 70.25L759.31 70.25L756.48 72.37Q755.70 71.31 754.21 70.78Q752.73 70.25 750.81 70.25L750.81 70.25Q748.69 70.25 746.92 71.20Q745.15 72.16 744.08 73.79L744.08 73.79L744.08 100L737.71 100L737.71 75.21ZM759.17 113.81Q771.22 103.26 771.22 83.00L771.22 83.00Q771.22 62.74 759.17 52.18L759.17 52.18L759.88 51.12Q768.81 57.85 773.20 65.32Q777.59 72.80 777.59 83.00L777.59 83.00Q777.59 93.20 773.20 100.67Q768.81 108.15 759.88 114.88L759.88 114.88L759.17 113.81Z"/></svg>