<svg xmlns="http://www.w3.org/2000/svg" width="800" height="150" viewBox="0 0 800 150"><path fill="#000" d="M20.69 100L20.00 100L20.00 86.46L20.69 86.46L20.69 100ZM23.44 100L21.38 100L21.38 86.46L23.44 86.46L23.44 100ZM24.82 100L24.13 100L24.13 86.46L24.82 86.46L24.82 100ZM26.20 100L25.51 100L25.51 86.46L26.20 86.46L26.20 100ZM30.33 100L28.26 100L28.26 86.46L30.33 86.46L30.33 100ZM23.95 107.32L23.95 102.00L24.64 102.00L24.64 102.07Q24.59 102.11 24.57 102.18L24.57 102.18Q24.57 102.23 24.57 102.39L24.57 102.39L24.57 106.82L27.11 106.82L27.11 107.32L23.95 107.32ZM31.70 100L31.01 100L31.01 86.46L31.70 86.46L31.70 100ZM34.46 100L33.77 100L33.77 86.46L34.46 86.46L34.46 100ZM35.83 100L35.14 100L35.14 86.46L35.83 86.46L35.83 100ZM38.59 100L37.90 100L37.90 86.46L38.59 86.46L38.59 100ZM41.34 100L40.65 100L40.65 86.46L41.34 86.46L41.34 100ZM42.72 100L42.03 100L42.03 86.46L42.72 86.46L42.72 100ZM45.47 100L43.41 100L43.41 86.46L45.47 86.46L45.47 100ZM46.85 100L46.16 100L46.16 86.46L46.85 86.46L46.85 100ZM50.98 100L48.91 100L48.91 86.46L50.98 86.46L50.98 100ZM52.36 100L51.67 100L51.67 86.46L52.36 86.46L52.36 100ZM40.74 107.32L40.74 106.82L41.75 106.82L41.75 103.92L40.79 103.92L40.79 103.42L42.35 103.42L42.35 106.82L43.27 106.82L43.27 107.32L40.74 107.32ZM42.03 102.59L42.03 102.59Q41.85 102.59 41.71 102.48L41.71 102.48Q41.59 102.34 41.59 102.16L41.59 102.16Q41.59 101.97 41.71 101.86L41.71 101.86Q41.82 101.72 42.03 101.72L42.03 101.72Q42.19 101.72 42.33 101.86L42.33 101.86Q42.46 102.00 42.46 102.16L42.46 102.16Q42.46 102.34 42.33 102.48L42.33 102.48Q42.19 102.59 42.03 102.59ZM53.73 100L53.04 100L53.04 86.46L53.73 86.46L53.73 100ZM56.49 100L55.80 100L55.80 86.46L56.49 86.46L56.49 100ZM57.86 100L57.17 100L57.17 86.46L57.86 86.46L57.86 100ZM60.62 100L59.93 100L59.93 86.46L60.62 86.46L60.62 100ZM63.37 100L62.68 100L62.68 86.46L63.37 86.46L63.37 100ZM64.75 100L64.06 100L64.06 86.46L64.75 86.46L64.75 100ZM67.50 100L65.43 100L65.43 86.46L67.50 86.46L67.50 100ZM68.88 100L68.19 100L68.19 86.46L68.88 86.46L68.88 100ZM71.63 100L70.94 100L70.94 86.46L71.63 86.46L71.63 100ZM74.38 100L72.32 100L72.32 86.46L74.38 86.46L74.38 100ZM64.20 107.41L64.20 107.41Q63.85 107.41 63.55 107.25L63.55 107.25Q63.25 107.09 63.05 106.82L63.05 106.82L62.82 107.32L62.43 107.32L62.43 101.65L63.14 101.65L63.14 101.70Q63.09 101.77 63.07 101.81L63.07 101.81Q63.05 101.88 63.05 102.02L63.05 102.02L63.05 104.02Q63.25 103.69 63.58 103.51L63.58 103.51Q63.90 103.33 64.22 103.33L64.22 103.33Q64.95 103.33 65.39 103.83L65.39 103.83Q65.82 104.36 65.82 105.32L65.82 105.32Q65.82 105.99 65.60 106.47L65.60 106.47Q65.37 106.95 64.98 107.18L64.98 107.18Q64.61 107.41 64.20 107.41ZM64.13 106.86L64.13 106.86Q64.59 106.86 64.88 106.49L64.88 106.49Q65.18 106.15 65.18 105.37L65.18 105.37Q65.18 104.61 64.91 104.25L64.91 104.25Q64.61 103.86 64.13 103.86L64.13 103.86Q63.64 103.86 63.35 104.29L63.35 104.29Q63.05 104.70 63.05 105.39L63.05 105.39Q63.05 106.86 64.13 106.86ZM75.76 100L75.07 100L75.07 86.46L75.76 86.46L75.76 100ZM78.51 100L77.83 100L77.83 86.46L78.51 86.46L78.51 100ZM79.89 100L79.20 100L79.20 86.46L79.89 86.46L79.89 100ZM82.64 100L81.96 100L81.96 86.46L82.64 86.46L82.64 100ZM85.40 100L84.71 100L84.71 86.46L85.40 86.46L85.40 100ZM88.15 100L86.09 100L86.09 86.46L88.15 86.46L88.15 100ZM89.53 100L88.84 100L88.84 86.46L89.53 86.46L89.53 100ZM90.91 100L90.22 100L90.22 86.46L90.91 86.46L90.91 100ZM93.66 100L91.59 100L91.59 86.46L93.66 86.46L93.66 100ZM96.41 100L95.72 100L95.72 86.46L96.41 86.46L96.41 100ZM86.82 103.33L86.82 103.33Q87.44 103.33 87.85 103.76L87.85 103.76L87.58 104.22L87.56 104.31L87.49 104.27Q87.46 104.18 87.44 104.13L87.44 104.13Q87.39 104.06 87.28 103.99L87.28 103.99Q87.07 103.86 86.78 103.86L86.78 103.86Q86.48 103.86 86.20 104.02L86.20 104.02Q85.93 104.15 85.77 104.47L85.77 104.47Q85.58 104.80 85.58 105.25L85.58 105.25L85.58 107.32L84.96 107.32L84.96 103.42L85.61 103.42L85.58 104.13Q85.74 103.76 86.09 103.53L86.09 103.53Q86.43 103.33 86.82 103.33ZM97.79 100L97.10 100L97.10 86.46L97.79 86.46L97.79 100ZM100.54 100L99.86 100L99.86 86.46L100.54 86.46L100.54 100ZM101.92 100L101.23 100L101.23 86.46L101.92 86.46L101.92 100ZM104.67 100L103.99 100L103.99 86.46L104.67 86.46L104.67 100ZM107.43 100L106.74 100L106.74 86.46L107.43 86.46L107.43 100ZM110.18 100L108.12 100L108.12 86.46L110.18 86.46L110.18 100ZM111.56 100L110.87 100L110.87 86.46L111.56 86.46L111.56 100ZM114.31 100L112.25 100L112.25 86.46L114.31 86.46L114.31 100ZM117.07 100L116.38 100L116.38 86.46L117.07 86.46L117.07 100ZM118.44 100L117.75 100L117.75 86.46L118.44 86.46L118.44 100ZM108.30 107.41L108.30 107.41Q107.43 107.41 106.92 106.88L106.92 106.88Q106.39 106.36 106.39 105.39L106.39 105.39Q106.39 104.75 106.65 104.27L106.65 104.27Q106.88 103.81 107.29 103.58L107.29 103.58Q107.68 103.33 108.18 103.33L108.18 103.33Q108.90 103.33 109.33 103.79L109.33 103.79Q109.77 104.27 109.77 105.19L109.77 105.19Q109.77 105.28 109.77 105.46L109.77 105.46L106.99 105.46Q107.01 106.17 107.38 106.54L107.38 106.54Q107.75 106.91 108.32 106.91L108.32 106.91Q108.94 106.91 109.33 106.47L109.33 106.47L109.68 106.82Q109.17 107.41 108.30 107.41ZM107.01 104.98L109.15 104.98Q109.15 104.43 108.87 104.11L108.87 104.11Q108.60 103.79 108.14 103.79L108.14 103.79Q107.73 103.79 107.40 104.08L107.40 104.08Q107.08 104.38 107.01 104.98L107.01 104.98ZM130.83 100L130.14 100L130.14 86.46L130.83 86.46L130.83 100ZM133.59 100L131.52 100L131.52 86.46L133.59 86.46L133.59 100ZM134.96 100L134.28 100L134.28 86.46L134.96 86.46L134.96 100ZM137.72 100L137.03 100L137.03 86.46L137.72 86.46L137.72 100ZM140.47 100L138.41 100L138.41 86.46L140.47 86.46L140.47 100ZM133.93 107.32L133.93 102.00L135.45 102.00Q136.32 102.00 136.75 102.34L136.75 102.34Q137.21 102.68 137.21 103.30L137.21 103.30Q137.21 103.69 137.01 104.02L137.01 104.02Q136.78 104.34 136.41 104.47L136.41 104.47Q136.87 104.64 137.14 105.00L137.14 105.00Q137.42 105.39 137.42 105.83L137.42 105.83Q137.42 106.52 136.91 106.93L136.91 106.93Q136.43 107.32 135.42 107.32L135.42 107.32L133.93 107.32ZM134.50 104.20L135.35 104.20Q136.62 104.20 136.62 103.35L136.62 103.35Q136.62 102.98 136.32 102.75L136.32 102.75Q136.04 102.50 135.45 102.50L135.45 102.50L134.50 102.50L134.50 104.20ZM134.50 106.79L135.54 106.79Q136.78 106.79 136.78 105.78L136.78 105.78Q136.78 104.70 135.38 104.70L135.38 104.70L134.50 104.70L134.50 106.79ZM141.85 100L141.16 100L141.16 86.46L141.85 86.46L141.85 100ZM144.60 100L143.91 100L143.91 86.46L144.60 86.46L144.60 100ZM145.98 100L145.29 100L145.29 86.46L145.98 86.46L145.98 100ZM148.73 100L148.04 100L148.04 86.46L148.73 86.46L148.73 100ZM151.49 100L150.80 100L150.80 86.46L151.49 86.46L151.49 100ZM154.24 100L152.17 100L152.17 86.46L154.24 86.46L154.24 100ZM155.62 100L154.93 100L154.93 86.46L155.62 86.46L155.62 100ZM156.99 100L156.30 100L156.30 86.46L156.99 86.46L156.99 100ZM159.75 100L159.06 100L159.06 86.46L159.75 86.46L159.75 100ZM162.50 100L160.43 100L160.43 86.46L162.50 86.46L162.50 100ZM152.13 103.33L152.13 103.33Q152.95 103.33 153.39 103.76L153.39 103.76Q153.83 104.20 153.83 105.25L153.83 105.25L153.83 107.32L153.16 107.32L153.16 106.72Q152.82 107.41 151.83 107.41L151.83 107.41Q151.19 107.41 150.82 107.11L150.82 107.11Q150.45 106.82 150.45 106.33L150.45 106.33Q150.45 105.92 150.73 105.62L150.73 105.62Q150.98 105.32 151.44 105.14L151.44 105.14Q151.88 104.98 152.43 104.98L152.43 104.98Q152.91 104.98 153.30 105.03L153.30 105.03Q153.25 104.38 152.95 104.11L152.95 104.11Q152.66 103.83 152.08 103.83L152.08 103.83Q151.78 103.83 151.53 103.95L151.53 103.95Q151.26 104.06 151.03 104.27L151.03 104.27L150.73 103.88Q151.28 103.33 152.13 103.33ZM151.90 106.95L151.90 106.95Q152.54 106.95 152.91 106.56L152.91 106.56Q153.28 106.20 153.30 105.51L153.30 105.51Q152.91 105.44 152.47 105.44L152.47 105.44Q151.83 105.44 151.44 105.67L151.44 105.67Q151.07 105.87 151.07 106.31L151.07 106.31Q151.07 106.95 151.90 106.95ZM163.88 100L163.19 100L163.19 86.46L163.88 86.46L163.88 100ZM166.63 100L165.94 100L165.94 86.46L166.63 86.46L166.63 100ZM168.01 100L167.32 100L167.32 86.46L168.01 86.46L168.01 100ZM170.76 100L170.07 100L170.07 86.46L170.76 86.46L170.76 100ZM173.51 100L172.83 100L172.83 86.46L173.51 86.46L173.51 100ZM176.27 100L174.20 100L174.20 86.46L176.27 86.46L176.27 100ZM177.64 100L176.96 100L176.96 86.46L177.64 86.46L177.64 100ZM179.02 100L178.33 100L178.33 86.46L179.02 86.46L179.02 100ZM181.78 100L179.71 100L179.71 86.46L181.78 86.46L181.78 100ZM184.53 100L183.84 100L183.84 86.46L184.53 86.46L184.53 100ZM174.94 103.33L174.94 103.33Q175.56 103.33 175.97 103.76L175.97 103.76L175.69 104.22L175.67 104.31L175.60 104.27Q175.58 104.18 175.56 104.13L175.56 104.13Q175.51 104.06 175.40 103.99L175.40 103.99Q175.19 103.86 174.89 103.86L174.89 103.86Q174.59 103.86 174.32 104.02L174.32 104.02Q174.04 104.15 173.88 104.47L173.88 104.47Q173.70 104.80 173.70 105.25L173.70 105.25L173.70 107.32L173.08 107.32L173.08 103.42L173.72 103.42L173.70 104.13Q173.86 103.76 174.20 103.53L174.20 103.53Q174.55 103.33 174.94 103.33ZM185.91 100L185.22 100L185.22 86.46L185.91 86.46L185.91 100ZM188.66 100L187.97 100L187.97 86.46L188.66 86.46L188.66 100ZM190.04 100L189.35 100L189.35 86.46L190.04 86.46L190.04 100ZM192.79 100L192.10 100L192.10 86.46L192.79 86.46L192.79 100ZM195.54 100L194.86 100L194.86 86.46L195.54 86.46L195.54 100ZM198.30 100L196.23 100L196.23 86.46L198.30 86.46L198.30 100ZM201.05 100L198.99 100L198.99 86.46L201.05 86.46L201.05 100ZM202.43 100L201.74 100L201.74 86.46L202.43 86.46L202.43 100ZM205.18 100L204.49 100L204.49 86.46L205.18 86.46L205.18 100ZM206.56 100L205.87 100L205.87 86.46L206.56 86.46L206.56 100ZM196.53 107.41L196.53 107.41Q195.96 107.41 195.52 107.16L195.52 107.16Q195.08 106.88 194.83 106.43L194.83 106.43Q194.58 105.97 194.58 105.37L194.58 105.37Q194.58 104.80 194.83 104.34L194.83 104.34Q195.08 103.88 195.52 103.60L195.52 103.60Q195.96 103.35 196.53 103.35L196.53 103.35Q196.99 103.35 197.38 103.53L197.38 103.53Q197.75 103.72 198.00 104.06L198.00 104.06L197.61 104.45L197.56 104.50L197.52 104.45Q197.52 104.38 197.47 104.31L197.47 104.31Q197.45 104.27 197.36 104.18L197.36 104.18Q197.17 104.02 196.97 103.95L196.97 103.95Q196.74 103.86 196.46 103.86L196.46 103.86Q196.12 103.86 195.84 104.04L195.84 104.04Q195.54 104.22 195.38 104.57L195.38 104.57Q195.20 104.89 195.20 105.32L195.20 105.32Q195.20 105.76 195.38 106.13L195.38 106.13Q195.57 106.47 195.86 106.65L195.86 106.65Q196.19 106.86 196.55 106.86L196.55 106.86Q197.15 106.86 197.59 106.38L197.59 106.38L197.93 106.79Q197.36 107.41 196.53 107.41ZM207.93 100L207.25 100L207.25 86.46L207.93 86.46L207.93 100ZM210.69 100L210.00 100L210.00 86.46L210.69 86.46L210.69 100ZM212.07 100L211.38 100L211.38 86.46L212.07 86.46L212.07 100ZM214.82 100L214.13 100L214.13 86.46L214.82 86.46L214.82 100ZM217.57 100L216.88 100L216.88 86.46L217.57 86.46L217.57 100ZM220.33 100L218.26 100L218.26 86.46L220.33 86.46L220.33 100ZM221.70 100L221.01 100L221.01 86.46L221.70 86.46L221.70 100ZM224.46 100L222.39 100L222.39 86.46L224.46 86.46L224.46 100ZM225.83 100L225.14 100L225.14 86.46L225.83 86.46L225.83 100ZM228.59 100L227.90 100L227.90 86.46L228.59 86.46L228.59 100ZM218.26 107.39L218.26 107.39Q217.73 107.39 217.32 107.14L217.32 107.14Q216.93 106.88 216.70 106.43L216.70 106.43Q216.45 105.97 216.45 105.37L216.45 105.37Q216.45 104.77 216.70 104.31L216.70 104.31Q216.93 103.86 217.32 103.60L217.32 103.60Q217.73 103.33 218.26 103.33L218.26 103.33Q218.79 103.33 219.18 103.60L219.18 103.60Q219.59 103.86 219.82 104.31L219.82 104.31Q220.05 104.77 220.05 105.37L220.05 105.37Q220.05 105.97 219.82 106.43L219.82 106.43Q219.59 106.88 219.18 107.14L219.18 107.14Q218.79 107.39 218.26 107.39ZM218.26 106.88L218.26 106.88Q218.58 106.88 218.86 106.68L218.86 106.68Q219.11 106.49 219.27 106.15L219.27 106.15Q219.41 105.78 219.41 105.35L219.41 105.35Q219.41 104.68 219.09 104.27L219.09 104.27Q218.77 103.86 218.26 103.86L218.26 103.86Q217.76 103.86 217.43 104.27L217.43 104.27Q217.11 104.68 217.11 105.35L217.11 105.35Q217.11 105.78 217.25 106.15L217.25 106.15Q217.41 106.49 217.66 106.68L217.66 106.68Q217.92 106.88 218.26 106.88ZM229.96 100L229.28 100L229.28 86.46L229.96 86.46L229.96 100ZM232.72 100L232.03 100L232.03 86.46L232.72 86.46L232.72 100ZM234.09 100L233.41 100L233.41 86.46L234.09 86.46L234.09 100ZM236.85 100L236.16 100L236.16 86.46L236.85 86.46L236.85 100ZM239.60 100L238.91 100L238.91 86.46L239.60 86.46L239.60 100ZM240.98 100L240.29 100L240.29 86.46L240.98 86.46L240.98 100ZM242.36 100L241.67 100L241.67 86.46L242.36 86.46L242.36 100ZM245.11 100L243.04 100L243.04 86.46L245.11 86.46L245.11 100ZM247.86 100L247.17 100L247.17 86.46L247.86 86.46L247.86 100ZM250.62 100L248.55 100L248.55 86.46L250.62 86.46L250.62 100ZM240.15 107.41L240.15 107.41Q239.74 107.41 239.37 107.16L239.37 107.16Q239.00 106.93 238.78 106.47L238.78 106.47Q238.55 105.99 238.55 105.32L238.55 105.32Q238.55 104.66 238.78 104.20L238.78 104.20Q239.03 103.76 239.39 103.53L239.39 103.53Q239.76 103.33 240.18 103.33L240.18 103.33Q240.59 103.33 240.86 103.49L240.86 103.49Q241.16 103.67 241.32 103.99L241.32 103.99L241.32 101.65L241.96 101.65L241.96 101.70Q241.92 101.77 241.90 101.81L241.90 101.81Q241.90 101.88 241.90 102.02L241.90 102.02L241.90 106.72Q241.90 106.93 241.92 107.04L241.92 107.04Q241.92 107.18 241.99 107.32L241.99 107.32L241.39 107.32Q241.32 107.18 241.30 107.04L241.30 107.04Q241.30 106.93 241.30 106.72L241.30 106.72Q241.12 107.04 240.82 107.23L240.82 107.23Q240.52 107.41 240.15 107.41ZM240.24 106.86L240.24 106.86Q240.77 106.86 241.02 106.45L241.02 106.45Q241.28 106.04 241.28 105.35L241.28 105.35Q241.28 104.66 241.00 104.25L241.00 104.25Q240.73 103.83 240.20 103.83L240.20 103.83Q239.69 103.83 239.42 104.20L239.42 104.20Q239.14 104.59 239.14 105.23L239.14 105.23Q239.14 105.99 239.42 106.43L239.42 106.43Q239.72 106.86 240.24 106.86ZM251.99 100L251.30 100L251.30 86.46L251.99 86.46L251.99 100ZM254.75 100L254.06 100L254.06 86.46L254.75 86.46L254.75 100ZM256.12 100L255.43 100L255.43 86.46L256.12 86.46L256.12 100ZM258.88 100L258.19 100L258.19 86.46L258.88 86.46L258.88 100ZM261.63 100L260.94 100L260.94 86.46L261.63 86.46L261.63 100ZM264.38 100L262.32 100L262.32 86.46L264.38 86.46L264.38 100ZM265.76 100L265.07 100L265.07 86.46L265.76 86.46L265.76 100ZM268.51 100L266.45 100L266.45 86.46L268.51 86.46L268.51 100ZM271.27 100L270.58 100L270.58 86.46L271.27 86.46L271.27 100ZM272.64 100L271.96 100L271.96 86.46L272.64 86.46L272.64 100ZM262.50 107.41L262.50 107.41Q261.63 107.41 261.13 106.88L261.13 106.88Q260.60 106.36 260.60 105.39L260.60 105.39Q260.60 104.75 260.85 104.27L260.85 104.27Q261.08 103.81 261.49 103.58L261.49 103.58Q261.88 103.33 262.39 103.33L262.39 103.33Q263.10 103.33 263.54 103.79L263.54 103.79Q263.97 104.27 263.97 105.19L263.97 105.19Q263.97 105.28 263.97 105.46L263.97 105.46L261.19 105.46Q261.22 106.17 261.58 106.54L261.58 106.54Q261.95 106.91 262.53 106.91L262.53 106.91Q263.14 106.91 263.54 106.47L263.54 106.47L263.88 106.82Q263.37 107.41 262.50 107.41ZM261.22 104.98L263.35 104.98Q263.35 104.43 263.08 104.11L263.08 104.11Q262.80 103.79 262.34 103.79L262.34 103.79Q261.93 103.79 261.61 104.08L261.61 104.08Q261.29 104.38 261.22 104.98L261.22 104.98ZM286.41 100L284.35 100L284.35 86.46L286.41 86.46L286.41 100ZM289.17 100L287.10 100L287.10 86.46L289.17 86.46L289.17 100ZM291.92 100L291.23 100L291.23 86.46L291.92 86.46L291.92 100ZM293.30 100L292.61 100L292.61 86.46L293.30 86.46L293.30 100ZM294.67 100L293.99 100L293.99 86.46L294.67 86.46L294.67 100ZM289.76 107.41L289.76 107.41Q289.35 107.41 288.96 107.25L288.96 107.25Q288.59 107.11 288.32 106.82L288.32 106.82L288.71 106.33L288.75 106.26L288.80 106.31Q288.82 106.40 288.85 106.47L288.85 106.47Q288.87 106.52 288.96 106.61L288.96 106.61Q289.12 106.75 289.30 106.82L289.30 106.82Q289.49 106.91 289.74 106.91L289.74 106.91Q290.25 106.91 290.50 106.61L290.50 106.61Q290.75 106.33 290.75 105.83L290.75 105.83Q290.75 105.30 290.43 105.05L290.43 105.05Q290.11 104.77 289.53 104.77L289.53 104.77Q289.44 104.77 289.26 104.80L289.26 104.80L289.26 104.31Q290.02 104.31 290.29 104.04L290.29 104.04Q290.57 103.76 290.57 103.26L290.57 103.26Q290.57 102.91 290.36 102.68L290.36 102.68Q290.15 102.48 289.81 102.48L289.81 102.48Q289.26 102.48 288.85 102.87L288.85 102.87L288.48 102.52Q289.01 101.97 289.81 101.97L289.81 101.97Q290.45 101.97 290.82 102.34L290.82 102.34Q291.19 102.68 291.19 103.30L291.19 103.30Q291.19 103.72 290.98 104.06L290.98 104.06Q290.75 104.38 290.36 104.50L290.36 104.50Q290.82 104.66 291.09 105.00L291.09 105.00Q291.37 105.35 291.37 105.85L291.37 105.85Q291.37 106.29 291.19 106.63L291.19 106.63Q290.98 107.00 290.64 107.21L290.64 107.21Q290.27 107.41 289.76 107.41ZM296.05 100L295.36 100L295.36 86.46L296.05 86.46L296.05 100ZM298.80 100L296.74 100L296.74 86.46L298.80 86.46L298.80 100ZM301.56 100L300.87 100L300.87 86.46L301.56 86.46L301.56 100ZM304.31 100L302.25 100L302.25 86.46L304.31 86.46L304.31 100ZM305.69 100L305.00 100L305.00 86.46L305.69 86.46L305.69 100ZM300.85 101.97L300.85 101.97Q301.33 101.97 301.72 102.25L301.72 102.25Q302.09 102.55 302.27 103.05L302.27 103.05Q302.48 103.56 302.48 104.22L302.48 104.22Q302.48 105.78 302.02 106.59L302.02 106.59Q301.54 107.39 300.69 107.41L300.69 107.41Q299.91 107.41 299.40 106.93L299.40 106.93L299.84 106.43L299.88 106.47Q299.88 106.56 299.93 106.63L299.93 106.63Q299.95 106.68 300.07 106.75L300.07 106.75Q300.30 106.88 300.64 106.88L300.64 106.88Q301.21 106.88 301.54 106.33L301.54 106.33Q301.83 105.76 301.90 104.93L301.90 104.93Q301.70 105.12 301.44 105.21L301.44 105.21Q301.19 105.30 300.87 105.30L300.87 105.30Q300.43 105.30 300.07 105.09L300.07 105.09Q299.72 104.89 299.52 104.54L299.52 104.54Q299.31 104.18 299.31 103.69L299.31 103.69Q299.31 103.21 299.52 102.82L299.52 102.82Q299.72 102.43 300.07 102.20L300.07 102.20Q300.43 101.97 300.85 101.97ZM300.87 104.80L300.87 104.80Q301.24 104.80 301.47 104.68L301.47 104.68Q301.72 104.59 301.90 104.34L301.90 104.34Q301.88 103.40 301.63 102.94L301.63 102.94Q301.37 102.50 300.87 102.50L300.87 102.50Q300.43 102.50 300.16 102.82L300.16 102.82Q299.91 103.14 299.91 103.69L299.91 103.69Q299.91 104.20 300.18 104.50L300.18 104.50Q300.46 104.80 300.87 104.80ZM319.46 100L317.39 100L317.39 86.46L319.46 86.46L319.46 100ZM320.83 100L320.14 100L320.14 86.46L320.83 86.46L320.83 100ZM323.59 100L321.52 100L321.52 86.46L323.59 86.46L323.59 100ZM326.34 100L325.65 100L325.65 86.46L326.34 86.46L326.34 100ZM327.72 100L327.03 100L327.03 86.46L327.72 86.46L327.72 100ZM321.27 107.32L321.27 102.00L324.53 102.00L324.53 102.52L321.82 102.52L321.82 104.27L324.07 104.27L324.07 104.82L321.82 104.82L321.82 106.79L324.50 106.79L324.50 107.32L321.27 107.32ZM329.09 100L328.41 100L328.41 86.46L329.09 86.46L329.09 100ZM331.85 100L331.16 100L331.16 86.46L331.85 86.46L331.85 100ZM333.22 100L332.54 100L332.54 86.46L333.22 86.46L333.22 100ZM335.98 100L335.29 100L335.29 86.46L335.98 86.46L335.98 100ZM338.73 100L338.04 100L338.04 86.46L338.73 86.46L338.73 100ZM340.11 100L339.42 100L339.42 86.46L340.11 86.46L340.11 100ZM342.86 100L342.17 100L342.17 86.46L342.86 86.46L342.86 100ZM345.62 100L343.55 100L343.55 86.46L345.62 86.46L345.62 100ZM346.99 100L346.30 100L346.30 86.46L346.99 86.46L346.99 100ZM349.75 100L347.68 100L347.68 86.46L349.75 86.46L349.75 100ZM337.68 107.32L339.05 105.35L337.72 103.42L338.39 103.42L339.40 104.86L340.38 103.42L341.00 103.42L339.74 105.32L341.19 107.32L340.48 107.32L339.40 105.81L338.39 107.32L337.68 107.32ZM351.12 100L350.43 100L350.43 86.46L351.12 86.46L351.12 100ZM353.88 100L353.19 100L353.19 86.46L353.88 86.46L353.88 100ZM355.25 100L354.57 100L354.57 86.46L355.25 86.46L355.25 100ZM358.01 100L357.32 100L357.32 86.46L358.01 86.46L358.01 100ZM360.76 100L360.07 100L360.07 86.46L360.76 86.46L360.76 100ZM362.14 100L361.45 100L361.45 86.46L362.14 86.46L362.14 100ZM363.51 100L362.83 100L362.83 86.46L363.51 86.46L363.51 100ZM366.27 100L364.20 100L364.20 86.46L366.27 86.46L366.27 100ZM369.02 100L366.96 100L366.96 86.46L369.02 86.46L369.02 100ZM371.78 100L371.09 100L371.09 86.46L371.78 86.46L371.78 100ZM362.92 106.47L363.10 106.95Q362.55 107.39 361.86 107.39L361.86 107.39Q361.22 107.39 360.94 107.00L360.94 107.00Q360.67 106.59 360.67 105.71L360.67 105.71Q360.67 105.55 360.69 105.21L360.69 105.21L360.78 103.92L359.91 103.92L359.91 103.42L360.81 103.42L360.88 102.39L361.54 102.27L361.63 102.27L361.63 102.32Q361.59 102.39 361.56 102.46L361.56 102.46Q361.52 102.52 361.52 102.64L361.52 102.64L361.43 103.42L362.71 103.42L362.71 103.92L361.38 103.92L361.31 105.25Q361.29 105.60 361.29 105.69L361.29 105.69Q361.29 106.38 361.45 106.63L361.45 106.63Q361.61 106.86 361.95 106.86L361.95 106.86Q362.21 106.86 362.44 106.77L362.44 106.77Q362.64 106.68 362.92 106.47L362.92 106.47ZM373.15 100L372.46 100L372.46 86.46L373.15 86.46L373.15 100ZM375.91 100L375.22 100L375.22 86.46L375.91 86.46L375.91 100ZM377.28 100L376.59 100L376.59 86.46L377.28 86.46L377.28 100ZM380.04 100L379.35 100L379.35 86.46L380.04 86.46L380.04 100ZM382.79 100L382.10 100L382.10 86.46L382.79 86.46L382.79 100ZM385.54 100L383.48 100L383.48 86.46L385.54 86.46L385.54 100ZM386.92 100L386.23 100L386.23 86.46L386.92 86.46L386.92 100ZM389.67 100L387.61 100L387.61 86.46L389.67 86.46L389.67 100ZM392.43 100L391.74 100L391.74 86.46L392.43 86.46L392.43 100ZM393.80 100L393.12 100L393.12 86.46L393.80 86.46L393.80 100ZM383.66 107.41L383.66 107.41Q382.79 107.41 382.29 106.88L382.29 106.88Q381.76 106.36 381.76 105.39L381.76 105.39Q381.76 104.75 382.01 104.27L382.01 104.27Q382.24 103.81 382.65 103.58L382.65 103.58Q383.04 103.33 383.55 103.33L383.55 103.33Q384.26 103.33 384.69 103.79L384.69 103.79Q385.13 104.27 385.13 105.19L385.13 105.19Q385.13 105.28 385.13 105.46L385.13 105.46L382.35 105.46Q382.38 106.17 382.74 106.54L382.74 106.54Q383.11 106.91 383.68 106.91L383.68 106.91Q384.30 106.91 384.69 106.47L384.69 106.47L385.04 106.82Q384.53 107.41 383.66 107.41ZM382.38 104.98L384.51 104.98Q384.51 104.43 384.24 104.11L384.24 104.11Q383.96 103.79 383.50 103.79L383.50 103.79Q383.09 103.79 382.77 104.08L382.77 104.08Q382.45 104.38 382.38 104.98L382.38 104.98ZM395.18 100L394.49 100L394.49 86.46L395.18 86.46L395.18 100ZM397.93 100L397.25 100L397.25 86.46L397.93 86.46L397.93 100ZM399.31 100L398.62 100L398.62 86.46L399.31 86.46L399.31 100ZM402.07 100L401.38 100L401.38 86.46L402.07 86.46L402.07 100ZM404.82 100L404.13 100L404.13 86.46L404.82 86.46L404.82 100ZM406.20 100L405.51 100L405.51 86.46L406.20 86.46L406.20 100ZM407.57 100L406.88 100L406.88 86.46L407.57 86.46L407.57 100ZM410.33 100L408.26 100L408.26 86.46L410.33 86.46L410.33 100ZM411.70 100L411.01 100L411.01 86.46L411.70 86.46L411.70 100ZM415.83 100L413.77 100L413.77 86.46L415.83 86.46L415.83 100ZM403.99 107.32L403.99 103.42L404.59 103.42L404.59 104.11Q404.82 103.76 405.16 103.53L405.16 103.53Q405.51 103.33 405.90 103.33L405.90 103.33Q406.43 103.33 406.75 103.72L406.75 103.72Q407.04 104.13 407.04 104.96L407.04 104.96L407.04 107.32L406.45 107.32L406.45 104.98Q406.45 104.38 406.26 104.13L406.26 104.13Q406.06 103.86 405.74 103.86L405.74 103.86Q405.46 103.86 405.21 104.02L405.21 104.02Q404.93 104.18 404.75 104.45L404.75 104.45Q404.59 104.73 404.59 105.07L404.59 105.07L404.59 107.32L403.99 107.32ZM417.21 100L416.52 100L416.52 86.46L417.21 86.46L417.21 100ZM419.96 100L419.28 100L419.28 86.46L419.96 86.46L419.96 100ZM421.34 100L420.65 100L420.65 86.46L421.34 86.46L421.34 100ZM424.09 100L423.41 100L423.41 86.46L424.09 86.46L424.09 100ZM426.85 100L426.16 100L426.16 86.46L426.85 86.46L426.85 100ZM428.22 100L427.54 100L427.54 86.46L428.22 86.46L428.22 100ZM429.60 100L428.91 100L428.91 86.46L429.60 86.46L429.60 100ZM432.36 100L430.29 100L430.29 86.46L432.36 86.46L432.36 100ZM435.11 100L434.42 100L434.42 86.46L435.11 86.46L435.11 100ZM437.86 100L435.80 100L435.80 86.46L437.86 86.46L437.86 100ZM427.40 107.41L427.40 107.41Q426.99 107.41 426.62 107.16L426.62 107.16Q426.25 106.93 426.02 106.47L426.02 106.47Q425.79 105.99 425.79 105.32L425.79 105.32Q425.79 104.66 426.02 104.20L426.02 104.20Q426.27 103.76 426.64 103.53L426.64 103.53Q427.01 103.33 427.42 103.33L427.42 103.33Q427.83 103.33 428.11 103.49L428.11 103.49Q428.41 103.67 428.57 103.99L428.57 103.99L428.57 101.65L429.21 101.65L429.21 101.70Q429.17 101.77 429.14 101.81L429.14 101.81Q429.14 101.88 429.14 102.02L429.14 102.02L429.14 106.72Q429.14 106.93 429.17 107.04L429.17 107.04Q429.17 107.18 429.23 107.32L429.23 107.32L428.64 107.32Q428.57 107.18 428.55 107.04L428.55 107.04Q428.55 106.93 428.55 106.72L428.55 106.72Q428.36 107.04 428.06 107.23L428.06 107.23Q427.77 107.41 427.40 107.41ZM427.49 106.86L427.49 106.86Q428.02 106.86 428.27 106.45L428.27 106.45Q428.52 106.04 428.52 105.35L428.52 105.35Q428.52 104.66 428.25 104.25L428.25 104.25Q427.97 103.83 427.44 103.83L427.44 103.83Q426.94 103.83 426.66 104.20L426.66 104.20Q426.39 104.59 426.39 105.23L426.39 105.23Q426.39 105.99 426.66 106.43L426.66 106.43Q426.96 106.86 427.49 106.86ZM439.24 100L438.55 100L438.55 86.46L439.24 86.46L439.24 100ZM441.99 100L441.30 100L441.30 86.46L441.99 86.46L441.99 100ZM443.37 100L442.68 100L442.68 86.46L443.37 86.46L443.37 100ZM446.12 100L445.43 100L445.43 86.46L446.12 86.46L446.12 100ZM448.88 100L448.19 100L448.19 86.46L448.88 86.46L448.88 100ZM451.63 100L449.57 100L449.57 86.46L451.63 86.46L451.63 100ZM453.01 100L452.32 100L452.32 86.46L453.01 86.46L453.01 100ZM455.76 100L453.70 100L453.70 86.46L455.76 86.46L455.76 100ZM458.51 100L457.83 100L457.83 86.46L458.51 86.46L458.51 100ZM459.89 100L459.20 100L459.20 86.46L459.89 86.46L459.89 100ZM449.75 107.41L449.75 107.41Q448.88 107.41 448.37 106.88L448.37 106.88Q447.84 106.36 447.84 105.39L447.84 105.39Q447.84 104.75 448.10 104.27L448.10 104.27Q448.33 103.81 448.74 103.58L448.74 103.58Q449.13 103.33 449.63 103.33L449.63 103.33Q450.35 103.33 450.78 103.79L450.78 103.79Q451.22 104.27 451.22 105.19L451.22 105.19Q451.22 105.28 451.22 105.46L451.22 105.46L448.44 105.46Q448.46 106.17 448.83 106.54L448.83 106.54Q449.20 106.91 449.77 106.91L449.77 106.91Q450.39 106.91 450.78 106.47L450.78 106.47L451.13 106.82Q450.62 107.41 449.75 107.41ZM448.46 104.98L450.60 104.98Q450.60 104.43 450.32 104.11L450.32 104.11Q450.05 103.79 449.59 103.79L449.59 103.79Q449.18 103.79 448.85 104.08L448.85 104.08Q448.53 104.38 448.46 104.98L448.46 104.98ZM461.27 100L460.58 100L460.58 86.46L461.27 86.46L461.27 100ZM464.02 100L463.33 100L463.33 86.46L464.02 86.46L464.02 100ZM465.40 100L464.71 100L464.71 86.46L465.40 86.46L465.40 100ZM468.15 100L467.46 100L467.46 86.46L468.15 86.46L468.15 100ZM470.91 100L470.22 100L470.22 86.46L470.91 86.46L470.91 100ZM472.28 100L471.59 100L471.59 86.46L472.28 86.46L472.28 100ZM473.66 100L472.97 100L472.97 86.46L473.66 86.46L473.66 100ZM476.41 100L474.35 100L474.35 86.46L476.41 86.46L476.41 100ZM479.17 100L478.48 100L478.48 86.46L479.17 86.46L479.17 100ZM481.92 100L479.86 100L479.86 86.46L481.92 86.46L481.92 100ZM471.46 107.41L471.46 107.41Q471.04 107.41 470.68 107.16L470.68 107.16Q470.31 106.93 470.08 106.47L470.08 106.47Q469.85 105.99 469.85 105.32L469.85 105.32Q469.85 104.66 470.08 104.20L470.08 104.20Q470.33 103.76 470.70 103.53L470.70 103.53Q471.07 103.33 471.48 103.33L471.48 103.33Q471.89 103.33 472.17 103.49L472.17 103.49Q472.47 103.67 472.63 103.99L472.63 103.99L472.63 101.65L473.27 101.65L473.27 101.70Q473.22 101.77 473.20 101.81L473.20 101.81Q473.20 101.88 473.20 102.02L473.20 102.02L473.20 106.72Q473.20 106.93 473.22 107.04L473.22 107.04Q473.22 107.18 473.29 107.32L473.29 107.32L472.70 107.32Q472.63 107.18 472.60 107.04L472.60 107.04Q472.60 106.93 472.60 106.72L472.60 106.72Q472.42 107.04 472.12 107.23L472.12 107.23Q471.82 107.41 471.46 107.41ZM471.55 106.86L471.55 106.86Q472.08 106.86 472.33 106.45L472.33 106.45Q472.58 106.04 472.58 105.35L472.58 105.35Q472.58 104.66 472.31 104.25L472.31 104.25Q472.03 103.83 471.50 103.83L471.50 103.83Q471.00 103.83 470.72 104.20L470.72 104.20Q470.45 104.59 470.45 105.23L470.45 105.23Q470.45 105.99 470.72 106.43L470.72 106.43Q471.02 106.86 471.55 106.86ZM494.31 100L493.62 100L493.62 86.46L494.31 86.46L494.31 100ZM495.69 100L495.00 100L495.00 86.46L495.69 86.46L495.69 100ZM498.44 100L496.38 100L496.38 86.46L498.44 86.46L498.44 100ZM501.20 100L499.13 100L499.13 86.46L501.20 86.46L501.20 100ZM503.95 100L503.26 100L503.26 86.46L503.95 86.46L503.95 100ZM498.76 107.32L498.76 102.52L497.27 102.52L497.27 102.00L500.94 102.00L500.94 102.52L499.38 102.52L499.38 107.32L498.76 107.32ZM505.33 100L504.64 100L504.64 86.46L505.33 86.46L505.33 100ZM508.08 100L507.39 100L507.39 86.46L508.08 86.46L508.08 100ZM509.46 100L508.77 100L508.77 86.46L509.46 86.46L509.46 100ZM512.21 100L511.52 100L511.52 86.46L512.21 86.46L512.21 100ZM514.96 100L514.28 100L514.28 86.46L514.96 86.46L514.96 100ZM517.72 100L515.65 100L515.65 86.46L517.72 86.46L517.72 100ZM519.09 100L518.41 100L518.41 86.46L519.09 86.46L519.09 100ZM521.85 100L519.78 100L519.78 86.46L521.85 86.46L521.85 100ZM524.60 100L523.91 100L523.91 86.46L524.60 86.46L524.60 100ZM525.98 100L525.29 100L525.29 86.46L525.98 86.46L525.98 100ZM515.84 107.41L515.84 107.41Q514.96 107.41 514.46 106.88L514.46 106.88Q513.93 106.36 513.93 105.39L513.93 105.39Q513.93 104.75 514.18 104.27L514.18 104.27Q514.41 103.81 514.83 103.58L514.83 103.58Q515.22 103.33 515.72 103.33L515.72 103.33Q516.43 103.33 516.87 103.79L516.87 103.79Q517.30 104.27 517.30 105.19L517.30 105.19Q517.30 105.28 517.30 105.46L517.30 105.46L514.53 105.46Q514.55 106.17 514.92 106.54L514.92 106.54Q515.29 106.91 515.86 106.91L515.86 106.91Q516.48 106.91 516.87 106.47L516.87 106.47L517.21 106.82Q516.71 107.41 515.84 107.41ZM514.55 104.98L516.68 104.98Q516.68 104.43 516.41 104.11L516.41 104.11Q516.13 103.79 515.68 103.79L515.68 103.79Q515.26 103.79 514.94 104.08L514.94 104.08Q514.62 104.38 514.55 104.98L514.55 104.98ZM527.36 100L526.67 100L526.67 86.46L527.36 86.46L527.36 100ZM530.11 100L529.42 100L529.42 86.46L530.11 86.46L530.11 100ZM531.49 100L530.80 100L530.80 86.46L531.49 86.46L531.49 100ZM534.24 100L533.55 100L533.55 86.46L534.24 86.46L534.24 100ZM536.99 100L536.30 100L536.30 86.46L536.99 86.46L536.99 100ZM538.37 100L537.68 100L537.68 86.46L538.37 86.46L538.37 100ZM541.12 100L540.43 100L540.43 86.46L541.12 86.46L541.12 100ZM543.88 100L541.81 100L541.81 86.46L543.88 86.46L543.88 100ZM545.25 100L544.57 100L544.57 86.46L545.25 86.46L545.25 100ZM548.01 100L545.94 100L545.94 86.46L548.01 86.46L548.01 100ZM535.94 107.32L537.31 105.35L535.98 103.42L536.65 103.42L537.66 104.86L538.64 103.42L539.26 103.42L538.00 105.32L539.45 107.32L538.74 107.32L537.66 105.81L536.65 107.32L535.94 107.32ZM549.38 100L548.70 100L548.70 86.46L549.38 86.46L549.38 100ZM552.14 100L551.45 100L551.45 86.46L552.14 86.46L552.14 100ZM553.51 100L552.83 100L552.83 86.46L553.51 86.46L553.51 100ZM556.27 100L555.58 100L555.58 86.46L556.27 86.46L556.27 100ZM559.02 100L558.33 100L558.33 86.46L559.02 86.46L559.02 100ZM560.40 100L559.71 100L559.71 86.46L560.40 86.46L560.40 100ZM561.78 100L561.09 100L561.09 86.46L561.78 86.46L561.78 100ZM564.53 100L562.46 100L562.46 86.46L564.53 86.46L564.53 100ZM567.28 100L565.22 100L565.22 86.46L567.28 86.46L567.28 100ZM570.04 100L569.35 100L569.35 86.46L570.04 86.46L570.04 100ZM561.18 106.47L561.36 106.95Q560.81 107.39 560.12 107.39L560.12 107.39Q559.48 107.39 559.21 107.00L559.21 107.00Q558.93 106.59 558.93 105.71L558.93 105.71Q558.93 105.55 558.95 105.21L558.95 105.21L559.04 103.92L558.17 103.92L558.17 103.42L559.07 103.42L559.14 102.39L559.80 102.27L559.89 102.27L559.89 102.32Q559.85 102.39 559.82 102.46L559.82 102.46Q559.78 102.52 559.78 102.64L559.78 102.64L559.69 103.42L560.97 103.42L560.97 103.92L559.64 103.92L559.57 105.25Q559.55 105.60 559.55 105.69L559.55 105.69Q559.55 106.38 559.71 106.63L559.71 106.63Q559.87 106.86 560.21 106.86L560.21 106.86Q560.47 106.86 560.70 106.77L560.70 106.77Q560.90 106.68 561.18 106.47L561.18 106.47ZM582.43 100L581.74 100L581.74 86.46L582.43 86.46L582.43 100ZM585.18 100L584.49 100L584.49 86.46L585.18 86.46L585.18 100ZM587.93 100L587.25 100L587.25 86.46L587.93 86.46L587.93 100ZM589.31 100L588.62 100L588.62 86.46L589.31 86.46L589.31 100ZM592.07 100L591.38 100L591.38 86.46L592.07 86.46L592.07 100ZM594.82 100L592.75 100L592.75 86.46L594.82 86.46L594.82 100ZM596.20 100L595.51 100L595.51 86.46L596.20 86.46L596.20 100ZM597.57 100L596.88 100L596.88 86.46L597.57 86.46L597.57 100ZM601.70 100L599.64 100L599.64 86.46L601.70 86.46L601.70 100ZM603.08 100L602.39 100L602.39 86.46L603.08 86.46L603.08 100ZM594.15 108.28L593.99 108.81Q593.28 108.49 592.75 107.92L592.75 107.92Q592.23 107.34 591.95 106.65L591.95 106.65Q591.65 105.94 591.65 105.19L591.65 105.19Q591.65 104.43 591.95 103.74L591.95 103.74Q592.23 103.05 592.73 102.52L592.73 102.52Q593.26 101.97 593.95 101.65L593.95 101.65L594.11 102.18Q593.26 102.64 592.78 103.44L592.78 103.44Q592.27 104.27 592.27 105.21L592.27 105.21Q592.27 106.17 592.78 107.00L592.78 107.00Q593.28 107.85 594.15 108.28L594.15 108.28ZM604.46 100L603.77 100L603.77 86.46L604.46 86.46L604.46 100ZM607.21 100L606.52 100L606.52 86.46L607.21 86.46L607.21 100ZM608.59 100L607.90 100L607.90 86.46L608.59 86.46L608.59 100ZM611.34 100L610.65 100L610.65 86.46L611.34 86.46L611.34 100ZM614.09 100L613.41 100L613.41 86.46L614.09 86.46L614.09 100ZM616.85 100L614.78 100L614.78 86.46L616.85 86.46L616.85 100ZM618.22 100L617.54 100L617.54 86.46L618.22 86.46L618.22 100ZM619.60 100L618.91 100L618.91 86.46L619.60 86.46L619.60 100ZM622.36 100L620.29 100L620.29 86.46L622.36 86.46L622.36 100ZM625.11 100L624.42 100L624.42 86.46L625.11 86.46L625.11 100ZM615.52 103.33L615.52 103.33Q616.14 103.33 616.55 103.76L616.55 103.76L616.27 104.22L616.25 104.31L616.18 104.27Q616.16 104.18 616.14 104.13L616.14 104.13Q616.09 104.06 615.98 103.99L615.98 103.99Q615.77 103.86 615.47 103.86L615.47 103.86Q615.17 103.86 614.90 104.02L614.90 104.02Q614.62 104.15 614.46 104.47L614.46 104.47Q614.28 104.80 614.28 105.25L614.28 105.25L614.28 107.32L613.66 107.32L613.66 103.42L614.30 103.42L614.28 104.13Q614.44 103.76 614.78 103.53L614.78 103.53Q615.13 103.33 615.52 103.33ZM626.49 100L625.80 100L625.80 86.46L626.49 86.46L626.49 100ZM629.24 100L628.55 100L628.55 86.46L629.24 86.46L629.24 100ZM630.62 100L629.93 100L629.93 86.46L630.62 86.46L630.62 100ZM633.37 100L632.68 100L632.68 86.46L633.37 86.46L633.37 100ZM636.12 100L635.43 100L635.43 86.46L636.12 86.46L636.12 100ZM638.88 100L636.81 100L636.81 86.46L638.88 86.46L638.88 100ZM640.25 100L639.57 100L639.57 86.46L640.25 86.46L640.25 100ZM643.01 100L640.94 100L640.94 86.46L643.01 86.46L643.01 100ZM645.76 100L645.07 100L645.07 86.46L645.76 86.46L645.76 100ZM647.14 100L646.45 100L646.45 86.46L647.14 86.46L647.14 100ZM637.00 107.41L637.00 107.41Q636.12 107.41 635.62 106.88L635.62 106.88Q635.09 106.36 635.09 105.39L635.09 105.39Q635.09 104.75 635.34 104.27L635.34 104.27Q635.57 103.81 635.99 103.58L635.99 103.58Q636.38 103.33 636.88 103.33L636.88 103.33Q637.59 103.33 638.03 103.79L638.03 103.79Q638.46 104.27 638.46 105.19L638.46 105.19Q638.46 105.28 638.46 105.46L638.46 105.46L635.69 105.46Q635.71 106.17 636.08 106.54L636.08 106.54Q636.44 106.91 637.02 106.91L637.02 106.91Q637.64 106.91 638.03 106.47L638.03 106.47L638.37 106.82Q637.87 107.41 637.00 107.41ZM635.71 104.98L637.84 104.98Q637.84 104.43 637.57 104.11L637.57 104.11Q637.29 103.79 636.83 103.79L636.83 103.79Q636.42 103.79 636.10 104.08L636.10 104.08Q635.78 104.38 635.71 104.98L635.71 104.98ZM648.51 100L647.83 100L647.83 86.46L648.51 86.46L648.51 100ZM651.27 100L650.58 100L650.58 86.46L651.27 86.46L651.27 100ZM652.64 100L651.96 100L651.96 86.46L652.64 86.46L652.64 100ZM655.40 100L654.71 100L654.71 86.46L655.40 86.46L655.40 100ZM658.15 100L657.46 100L657.46 86.46L658.15 86.46L658.15 100ZM659.53 100L658.84 100L658.84 86.46L659.53 86.46L659.53 100ZM660.91 100L660.22 100L660.22 86.46L660.91 86.46L660.91 100ZM662.28 100L661.59 100L661.59 86.46L662.28 86.46L662.28 100ZM666.41 100L664.35 100L664.35 86.46L666.41 86.46L666.41 100ZM669.17 100L667.10 100L667.10 86.46L669.17 86.46L669.17 100ZM660.68 103.33L660.77 103.83Q660.68 103.81 660.54 103.81L660.54 103.81Q660.13 103.81 659.85 103.99L659.85 103.99Q660.01 104.29 660.01 104.64L660.01 104.64Q660.01 105.03 659.83 105.32L659.83 105.32Q659.67 105.64 659.35 105.83L659.35 105.83Q659.05 105.99 658.63 105.99L658.63 105.99Q658.31 105.99 658.04 105.87L658.04 105.87Q657.88 106.06 657.88 106.24L657.88 106.24Q657.88 106.45 658.13 106.54L658.13 106.54Q658.40 106.63 659.07 106.63L659.07 106.63Q659.90 106.63 660.19 106.86L660.19 106.86Q660.49 107.11 660.49 107.62L660.49 107.62Q660.49 108.12 660.10 108.44L660.10 108.44Q659.69 108.79 658.82 108.79L658.82 108.79Q657.97 108.79 657.51 108.54L657.51 108.54Q657.03 108.28 657.03 107.78L657.03 107.78Q657.03 107.48 657.21 107.25L657.21 107.25Q657.37 107.02 657.65 106.91L657.65 106.91Q657.35 106.72 657.35 106.38L657.35 106.38Q657.35 106.04 657.69 105.67L657.69 105.67Q657.49 105.48 657.37 105.21L657.37 105.21Q657.28 104.96 657.28 104.64L657.28 104.64Q657.28 104.27 657.44 103.95L657.44 103.95Q657.60 103.63 657.92 103.46L657.92 103.46Q658.22 103.28 658.63 103.28L658.63 103.28Q659.25 103.28 659.64 103.67L659.64 103.67Q659.83 103.49 660.06 103.40L660.06 103.40Q660.26 103.30 660.54 103.30L660.54 103.30L660.68 103.33ZM658.63 105.48L658.63 105.48Q659.00 105.48 659.25 105.23L659.25 105.23Q659.48 105.00 659.48 104.64L659.48 104.64Q659.48 104.27 659.25 104.02L659.25 104.02Q659.00 103.79 658.63 103.79L658.63 103.79Q658.27 103.79 658.01 104.02L658.01 104.02Q657.79 104.27 657.79 104.64L657.79 104.64Q657.79 105.00 658.01 105.23L658.01 105.23Q658.27 105.48 658.63 105.48ZM659.94 107.71L659.94 107.71Q659.94 107.50 659.87 107.39L659.87 107.39Q659.80 107.27 659.57 107.21L659.57 107.21Q659.37 107.16 658.93 107.16L658.93 107.16Q658.34 107.16 657.97 107.04L657.97 107.04Q657.76 107.18 657.67 107.32L657.67 107.32Q657.60 107.48 657.60 107.71L657.60 107.71Q657.60 108.01 657.92 108.17L657.92 108.17Q658.24 108.33 658.82 108.33L658.82 108.33Q659.39 108.33 659.67 108.17L659.67 108.17Q659.94 107.99 659.94 107.71ZM670.54 100L669.86 100L669.86 86.46L670.54 86.46L670.54 100ZM673.30 100L672.61 100L672.61 86.46L673.30 86.46L673.30 100ZM674.67 100L673.99 100L673.99 86.46L674.67 86.46L674.67 100ZM677.43 100L676.74 100L676.74 86.46L677.43 86.46L677.43 100ZM680.18 100L679.49 100L679.49 86.46L680.18 86.46L680.18 100ZM682.93 100L680.87 100L680.87 86.46L682.93 86.46L682.93 100ZM685.69 100L685.00 100L685.00 86.46L685.69 86.46L685.69 100ZM687.07 100L686.38 100L686.38 86.46L687.07 86.46L687.07 100ZM688.44 100L687.75 100L687.75 86.46L688.44 86.46L688.44 100ZM691.20 100L689.13 100L689.13 86.46L691.20 86.46L691.20 100ZM680.62 107.41L680.62 107.41Q680.00 107.41 679.63 106.95L679.63 106.95Q679.26 106.49 679.29 105.60L679.29 105.60L679.29 103.42L679.88 103.42L679.88 105.60Q679.88 106.29 680.14 106.61L680.14 106.61Q680.36 106.93 680.78 106.93L680.78 106.93Q681.21 106.93 681.51 106.56L681.51 106.56Q681.83 106.22 681.83 105.58L681.83 105.58L681.83 103.42L682.43 103.42L682.43 106.72Q682.43 106.93 682.43 107.04L682.43 107.04Q682.45 107.18 682.50 107.32L682.50 107.32L681.93 107.32Q681.86 107.18 681.86 107.04L681.86 107.04Q681.83 106.93 681.83 106.72L681.83 106.72Q681.65 107.04 681.33 107.23L681.33 107.23Q681.01 107.41 680.62 107.41ZM692.57 100L691.88 100L691.88 86.46L692.57 86.46L692.57 100ZM695.33 100L694.64 100L694.64 86.46L695.33 86.46L695.33 100ZM696.70 100L696.01 100L696.01 86.46L696.70 86.46L696.70 100ZM699.46 100L698.77 100L698.77 86.46L699.46 86.46L699.46 100ZM702.21 100L701.52 100L701.52 86.46L702.21 86.46L702.21 100ZM703.59 100L702.90 100L702.90 86.46L703.59 86.46L703.59 100ZM706.34 100L704.28 100L704.28 86.46L706.34 86.46L706.34 100ZM707.72 100L707.03 100L707.03 86.46L707.72 86.46L707.72 100ZM709.09 100L708.41 100L708.41 86.46L709.09 86.46L709.09 100ZM713.22 100L711.16 100L711.16 86.46L713.22 86.46L713.22 100ZM701.43 107.32L701.43 106.82L702.60 106.82L702.60 102.13L701.50 102.13L701.50 101.65L703.22 101.65L703.22 106.82L704.37 106.82L704.37 107.32L701.43 107.32ZM714.60 100L713.91 100L713.91 86.46L714.60 86.46L714.60 100ZM717.36 100L716.67 100L716.67 86.46L717.36 86.46L717.36 100ZM718.73 100L718.04 100L718.04 86.46L718.73 86.46L718.73 100ZM721.49 100L720.80 100L720.80 86.46L721.49 86.46L721.49 100ZM724.24 100L723.55 100L723.55 86.46L724.24 86.46L724.24 100ZM726.99 100L724.93 100L724.93 86.46L726.99 86.46L726.99 100ZM728.37 100L727.68 100L727.68 86.46L728.37 86.46L728.37 100ZM729.75 100L729.06 100L729.06 86.46L729.75 86.46L729.75 100ZM732.50 100L731.81 100L731.81 86.46L732.50 86.46L732.50 100ZM735.25 100L733.19 100L733.19 86.46L735.25 86.46L735.25 100ZM724.88 103.33L724.88 103.33Q725.71 103.33 726.14 103.76L726.14 103.76Q726.58 104.20 726.58 105.25L726.58 105.25L726.58 107.32L725.91 107.32L725.91 106.72Q725.57 107.41 724.58 107.41L724.58 107.41Q723.94 107.41 723.57 107.11L723.57 107.11Q723.21 106.82 723.21 106.33L723.21 106.33Q723.21 105.92 723.48 105.62L723.48 105.62Q723.73 105.32 724.19 105.14L724.19 105.14Q724.63 104.98 725.18 104.98L725.18 104.98Q725.66 104.98 726.05 105.03L726.05 105.03Q726.01 104.38 725.71 104.11L725.71 104.11Q725.41 103.83 724.84 103.83L724.84 103.83Q724.54 103.83 724.29 103.95L724.29 103.95Q724.01 104.06 723.78 104.27L723.78 104.27L723.48 103.88Q724.03 103.33 724.88 103.33ZM724.65 106.95L724.65 106.95Q725.29 106.95 725.66 106.56L725.66 106.56Q726.03 106.20 726.05 105.51L726.05 105.51Q725.66 105.44 725.23 105.44L725.23 105.44Q724.58 105.44 724.19 105.67L724.19 105.67Q723.83 105.87 723.83 106.31L723.83 106.31Q723.83 106.95 724.65 106.95ZM736.63 100L735.94 100L735.94 86.46L736.63 86.46L736.63 100ZM739.38 100L738.70 100L738.70 86.46L739.38 86.46L739.38 100ZM740.76 100L740.07 100L740.07 86.46L740.76 86.46L740.76 100ZM743.51 100L742.83 100L742.83 86.46L743.51 86.46L743.51 100ZM746.27 100L745.58 100L745.58 86.46L746.27 86.46L746.27 100ZM749.02 100L746.96 100L746.96 86.46L749.02 86.46L749.02 100ZM750.40 100L749.71 100L749.71 86.46L750.40 86.46L750.40 100ZM751.78 100L751.09 100L751.09 86.46L751.78 86.46L751.78 100ZM754.53 100L752.46 100L752.46 86.46L754.53 86.46L754.53 100ZM757.28 100L756.59 100L756.59 86.46L757.28 86.46L757.28 100ZM747.69 103.33L747.69 103.33Q748.31 103.33 748.72 103.76L748.72 103.76L748.45 104.22L748.43 104.31L748.36 104.27Q748.33 104.18 748.31 104.13L748.31 104.13Q748.26 104.06 748.15 103.99L748.15 103.99Q747.94 103.86 747.64 103.86L747.64 103.86Q747.35 103.86 747.07 104.02L747.07 104.02Q746.80 104.15 746.64 104.47L746.64 104.47Q746.45 104.80 746.45 105.25L746.45 105.25L746.45 107.32L745.83 107.32L745.83 103.42L746.47 103.42L746.45 104.13Q746.61 103.76 746.96 103.53L746.96 103.53Q747.30 103.33 747.69 103.33ZM758.66 100L757.97 100L757.97 86.46L758.66 86.46L758.66 100ZM761.41 100L760.72 100L760.72 86.46L761.41 86.46L761.41 100ZM764.17 100L763.48 100L763.48 86.46L764.17 86.46L764.17 100ZM765.54 100L764.86 100L764.86 86.46L765.54 86.46L765.54 100ZM768.30 100L767.61 100L767.61 86.46L768.30 86.46L768.30 100ZM769.67 100L768.99 100L768.99 86.46L769.67 86.46L769.67 100ZM772.43 100L770.36 100L770.36 86.46L772.43 86.46L772.43 100ZM773.80 100L773.12 100L773.12 86.46L773.80 86.46L773.80 100ZM777.93 100L775.87 100L775.87 86.46L777.93 86.46L777.93 100ZM779.31 100L778.62 100L778.62 86.46L779.31 86.46L779.31 100ZM767.98 108.81L767.82 108.28Q768.69 107.85 769.19 107.00L769.19 107.00Q769.72 106.17 769.72 105.21L769.72 105.21Q769.72 104.27 769.21 103.44L769.21 103.44Q768.71 102.64 767.88 102.18L767.88 102.18L768.04 101.65Q768.71 101.97 769.24 102.52L769.24 102.52Q769.74 103.05 770.04 103.74L770.04 103.74Q770.32 104.43 770.32 105.19L770.32 105.19Q770.32 105.94 770.02 106.65L770.02 106.65Q769.74 107.34 769.21 107.92L769.21 107.92Q768.69 108.49 767.98 108.81L767.98 108.81Z"/></svg>