<svg xmlns="http://www.w3.org/2000/svg" width="800" height="150" viewBox="0 0 800 150"><path fill="#000" d="M241.82 103.46L241.82 103.46Q240.45 103.46 238.36 102.95Q236.27 102.45 234.00 101.69Q231.74 100.94 229.76 100Q227.78 99.06 226.70 98.20L226.70 98.20Q225.83 97.48 225.04 96.40Q224.25 95.32 224.25 94.10L224.25 94.10Q224.25 93.09 224.90 92.55Q225.54 92.01 226.55 92.01L226.55 92.01Q226.91 92.01 227.74 92.19Q228.57 92.37 229.29 92.69Q230.01 93.02 230.01 93.38L230.01 93.38Q230.01 93.66 229.76 93.77Q229.50 93.88 229.29 93.88L229.29 93.88Q229 93.88 228.75 93.81Q228.50 93.74 228.28 93.74L228.28 93.74Q227.78 93.74 227.31 93.99Q226.84 94.24 226.84 94.82L226.84 94.82Q226.84 96.04 228.39 97.26Q229.94 98.49 232.10 99.53Q234.26 100.58 236.31 101.22Q238.36 101.87 239.44 101.87L239.44 101.87Q241.02 101.87 242.39 100.94Q243.76 100 243.76 98.42L243.76 98.42Q243.76 96.98 243.26 95.21Q242.75 93.45 242.10 91.68Q241.46 89.92 240.88 88.62L240.88 88.62Q239.66 85.53 238.83 81.75Q238 77.97 238 74.15L238 74.15Q238 70.19 239.12 66.59Q240.23 62.99 242.90 60.44Q245.56 57.88 250.02 57.09L250.02 57.09Q250.38 56.94 250.71 56.94Q251.03 56.94 251.32 56.94L251.32 56.94Q254.20 56.94 256.22 58.64Q258.23 60.33 259.35 62.88Q260.46 65.44 260.46 67.96L260.46 67.96Q260.46 69.18 260.18 70.84Q259.89 72.50 259.24 74.08Q258.59 75.66 257.55 76.71Q256.50 77.75 254.92 77.75L254.92 77.75Q253.41 77.75 252.69 76.67Q251.97 75.59 251.97 74.22L251.97 74.22Q251.97 72.78 252.47 70.98Q252.98 69.18 253.70 67.46Q254.42 65.73 255.06 64.50L255.06 64.50Q255.14 64.43 255.24 64.25Q255.35 64.07 255.50 64.07L255.50 64.07Q255.64 64.07 255.64 64.43L255.64 64.43L255.64 64.94Q255.64 65.37 255.42 65.73L255.42 65.73Q254.70 67.31 253.98 69.29Q253.26 71.27 253.26 73.07L253.26 73.07Q253.26 74.22 253.80 75.30Q254.34 76.38 255.14 76.38L255.14 76.38Q255.57 76.38 256.04 75.95Q256.50 75.52 256.94 74.51L256.94 74.51Q257.66 73.07 257.98 71.42Q258.30 69.76 258.30 68.18L258.30 68.18Q258.30 66.23 257.55 63.86Q256.79 61.48 255.28 59.79Q253.77 58.10 251.39 58.10L251.39 58.10L250.96 58.10Q250.38 58.10 250.17 58.24L250.17 58.24Q246.50 59.03 244.30 61.55Q242.10 64.07 241.13 67.56Q240.16 71.06 240.16 74.80L240.16 74.80Q240.16 78.26 240.81 81.57Q241.46 84.88 242.46 87.40L242.46 87.40Q243.11 88.84 243.98 91.18Q244.84 93.52 245.52 95.82Q246.21 98.13 246.21 99.64L246.21 99.64Q246.21 101.73 244.95 102.59Q243.69 103.46 241.82 103.46ZM259.82 101.15L259.82 101.15Q258.30 101.15 258.02 99.71Q257.73 98.27 257.73 97.12L257.73 97.12Q257.73 95.10 257.91 93.12Q258.09 91.14 258.23 89.13L258.23 89.13Q257.94 90.14 257.40 91.94Q256.86 93.74 256.07 95.61Q255.28 97.48 254.27 98.78Q253.26 100.07 251.97 100.07L251.97 100.07Q251.10 100.07 250.67 99.35Q250.24 98.63 250.13 97.66Q250.02 96.69 250.02 96.11L250.02 96.11Q250.02 92.73 251.39 89.13Q252.76 85.53 254.63 82.86L254.63 82.86Q254.63 81.78 255.46 80.63Q256.29 79.48 257.44 78.54Q258.59 77.61 259.46 77.25L259.46 77.25Q259.89 77.10 260.25 77.10L260.25 77.10Q260.61 77.10 260.79 77.39Q260.97 77.68 260.97 78.04L260.97 78.04Q260.97 78.33 260.90 78.65Q260.82 78.98 260.61 79.19L260.61 79.19Q259.96 79.84 259.35 80.34Q258.74 80.85 258.09 81.64L258.09 81.64Q256.65 83.37 255.10 85.82Q253.55 88.26 252.47 90.89Q251.39 93.52 251.39 95.82L251.39 95.82Q251.39 96.11 251.46 96.94Q251.54 97.77 251.79 98.45Q252.04 99.14 252.54 99.14L252.54 99.14Q253.19 99.14 253.73 98.38Q254.27 97.62 254.56 97.12L254.56 97.12Q255.35 95.68 256.07 93.52Q256.79 91.36 257.37 89.13Q257.94 86.90 258.23 85.31L258.23 85.31Q258.38 84.81 258.45 84.34Q258.52 83.87 258.59 83.37L258.59 83.37Q258.66 83.15 258.66 82.83Q258.66 82.50 258.74 82.22L258.74 82.22Q258.88 81.78 259.38 81.78L259.38 81.78Q259.74 81.78 260.03 82Q260.32 82.22 260.32 82.58L260.32 82.58L260.32 82.72Q260.32 85.17 260.00 87.54Q259.67 89.92 259.67 92.44L259.67 92.44Q259.67 93.88 259.74 95.46Q259.82 97.05 260.10 98.56L260.10 98.56Q260.10 98.78 260.25 99.21Q260.39 99.64 260.75 99.64L260.75 99.64Q260.97 99.64 261.22 99.46Q261.47 99.28 261.54 99.21L261.54 99.21Q263.34 97.70 264.64 95.28Q265.94 92.87 266.73 90.71L266.73 90.71Q266.94 90.35 267.09 90.35L267.09 90.35Q267.30 90.35 267.30 90.71L267.30 90.71L267.30 91Q266.94 92.22 265.94 94.28Q264.93 96.33 263.74 98.16Q262.55 100 261.47 100.65L261.47 100.65Q260.75 101.15 259.82 101.15ZM271.55 100.50L271.55 100.50Q271.26 100.50 270.29 100.43Q269.32 100.36 269.18 100.07L269.18 100.07L268.96 99.57Q268.96 99.42 269.25 99.39Q269.54 99.35 269.61 99.35L269.61 99.35L271.98 99.35Q272.63 99.28 273.57 99.03Q274.50 98.78 275.22 98.27Q275.94 97.77 275.94 96.98L275.94 96.98Q275.94 96.47 275.58 96.11Q275.22 95.75 274.86 95.54L274.86 95.54Q273.42 94.60 271.80 93.41Q270.18 92.22 269.10 90.64Q268.02 89.06 268.02 87.11L268.02 87.11Q268.02 85.17 269.28 83.19Q270.54 81.21 272.52 79.52Q274.50 77.82 276.70 76.82Q278.90 75.81 280.77 75.81L280.77 75.81Q281.99 75.81 283.40 76.49Q284.80 77.18 284.80 78.62L284.80 78.62Q284.80 79.05 284.48 79.88Q284.15 80.70 283.58 80.70L283.58 80.70Q283.43 80.70 283.40 80.45Q283.36 80.20 283.36 80.13L283.36 80.13Q283.36 79.70 283.43 79.30Q283.50 78.90 283.50 78.54L283.50 78.54Q283.50 77.25 282.21 77.25L282.21 77.25Q281.20 77.25 279.62 78.00Q278.03 78.76 276.52 79.73Q275.01 80.70 274.22 81.42L274.22 81.42Q273.42 82.22 272.42 83.33Q271.41 84.45 270.69 85.71Q269.97 86.97 269.97 88.19L269.97 88.19Q269.97 89.70 271.19 91Q272.42 92.30 274.04 93.38Q275.66 94.46 276.88 95.46Q278.10 96.47 278.10 97.55L278.10 97.55Q278.10 98.70 276.84 99.35Q275.58 100 274.04 100.25Q272.49 100.50 271.55 100.50ZM289.05 100.50L289.05 100.50Q288.76 100.50 287.79 100.43Q286.82 100.36 286.67 100.07L286.67 100.07L286.46 99.57Q286.46 99.42 286.74 99.39Q287.03 99.35 287.10 99.35L287.10 99.35L289.48 99.35Q290.13 99.28 291.06 99.03Q292.00 98.78 292.72 98.27Q293.44 97.77 293.44 96.98L293.44 96.98Q293.44 96.47 293.08 96.11Q292.72 95.75 292.36 95.54L292.36 95.54Q290.92 94.60 289.30 93.41Q287.68 92.22 286.60 90.64Q285.52 89.06 285.52 87.11L285.52 87.11Q285.52 85.17 286.78 83.19Q288.04 81.21 290.02 79.52Q292.00 77.82 294.20 76.82Q296.39 75.81 298.26 75.81L298.26 75.81Q299.49 75.81 300.89 76.49Q302.30 77.18 302.30 78.62L302.30 78.62Q302.30 79.05 301.97 79.88Q301.65 80.70 301.07 80.70L301.07 80.70Q300.93 80.70 300.89 80.45Q300.86 80.20 300.86 80.13L300.86 80.13Q300.86 79.70 300.93 79.30Q301.00 78.90 301.00 78.54L301.00 78.54Q301.00 77.25 299.70 77.25L299.70 77.25Q298.70 77.25 297.11 78.00Q295.53 78.76 294.02 79.73Q292.50 80.70 291.71 81.42L291.71 81.42Q290.92 82.22 289.91 83.33Q288.90 84.45 288.18 85.71Q287.46 86.97 287.46 88.19L287.46 88.19Q287.46 89.70 288.69 91Q289.91 92.30 291.53 93.38Q293.15 94.46 294.38 95.46Q295.60 96.47 295.60 97.55L295.60 97.55Q295.60 98.70 294.34 99.35Q293.08 100 291.53 100.25Q289.98 100.50 289.05 100.50ZM304.31 112.24L304.31 112.24Q302.94 112.24 301.83 111.56Q300.71 110.87 300.71 109.36L300.71 109.36Q300.71 107.63 302.04 106.05Q303.38 104.46 304.60 103.38L304.60 103.38Q306.40 101.87 308.85 100.07Q311.30 98.27 313.53 97.77L313.53 97.77Q313.46 94.60 312.16 91.50L312.16 91.50Q311.01 93.09 309.75 94.64Q308.49 96.18 306.98 97.55L306.98 97.55Q306.33 98.13 304.92 99.06Q303.52 100 302.66 100L302.66 100Q301.94 100 301.94 99.14L301.94 99.14Q301.94 98.42 302.30 97.55L302.30 97.55Q302.94 95.90 303.59 94.20Q304.24 92.51 304.89 90.93L304.89 90.93Q305.46 89.63 306.08 87.98Q306.69 86.32 306.69 84.95L306.69 84.95Q306.69 84.74 306.62 84.34Q306.54 83.94 306.18 83.94L306.18 83.94Q305.75 83.94 305.14 84.45Q304.53 84.95 304.17 84.95L304.17 84.95Q303.95 84.95 303.95 84.81L303.95 84.81Q303.95 84.38 304.60 83.98Q305.25 83.58 306.04 83.33Q306.83 83.08 307.19 83.08L307.19 83.08Q308.20 83.08 308.70 83.69Q309.21 84.30 309.21 85.31L309.21 85.31Q309.21 86.54 308.34 88.55Q307.48 90.57 306.33 92.69Q305.18 94.82 304.31 96.36Q303.45 97.91 303.45 98.27L303.45 98.27Q303.45 98.49 303.59 98.49L303.59 98.49Q304.02 98.49 305.03 97.84Q306.04 97.19 306.40 96.90L306.40 96.90Q309.57 94.17 311.94 90.71L311.94 90.71Q311.80 90.42 311.40 89.70Q311.01 88.98 311.01 88.70L311.01 88.70Q311.01 88.26 311.73 87.76Q312.45 87.26 313.28 86.93Q314.10 86.61 314.39 86.61L314.39 86.61Q314.90 86.61 314.90 87.04L314.90 87.04Q314.90 87.69 314.03 88.91Q313.17 90.14 312.81 90.71L312.81 90.71Q313.60 92.30 314.18 94.02Q314.75 95.75 315.04 97.55L315.04 97.55Q315.54 97.55 316.62 97.98Q317.70 98.42 317.70 98.99L317.70 98.99Q317.70 99.21 317.42 99.21L317.42 99.21Q317.20 99.21 316.70 98.78Q316.19 98.34 315.18 98.42L315.18 98.42Q315.26 98.99 315.29 99.57Q315.33 100.14 315.33 100.79L315.33 100.79Q315.33 103.46 314.39 105.65Q313.46 107.85 311.30 109.50L311.30 109.50Q309.93 110.58 308.06 111.41Q306.18 112.24 304.31 112.24ZM312.45 89.99L312.45 89.99Q312.81 89.42 313.13 88.77Q313.46 88.12 313.74 87.47L313.74 87.47Q313.17 87.76 312.70 88.08Q312.23 88.41 311.66 88.77L311.66 88.77Q311.94 89.06 312.09 89.34Q312.23 89.63 312.45 89.99ZM304.53 111.66L304.53 111.66Q306.04 111.66 307.41 110.69Q308.78 109.72 309.71 108.71L309.71 108.71Q311.66 106.62 312.59 104.07Q313.53 101.51 313.60 98.70L313.60 98.70Q312.23 99.14 310.29 100.22Q308.34 101.30 306.47 102.81Q304.60 104.32 303.34 106.01Q302.08 107.70 302.08 109.29L302.08 109.29Q302.08 110.37 302.76 111.02Q303.45 111.66 304.53 111.66ZM348.02 74.94L348.02 74.94Q346.94 74.94 345.06 74.87Q343.19 74.80 341.03 74.51Q338.87 74.22 336.93 73.65Q334.98 73.07 333.72 72.10Q332.46 71.13 332.46 69.69L332.46 69.69Q332.46 68.25 333.54 67.06Q334.62 65.87 335.78 65.30L335.78 65.30Q338.58 63.78 342.40 62.67Q346.22 61.55 350.46 60.80Q354.71 60.04 358.74 59.68Q362.78 59.32 365.87 59.32L365.87 59.32Q366.66 59.32 368.36 59.39Q370.05 59.46 372.17 59.72Q374.30 59.97 376.24 60.40Q378.18 60.83 379.44 61.59Q380.70 62.34 380.70 63.50L380.70 63.50Q380.70 63.78 380.49 64.29Q380.27 64.79 379.84 64.79L379.84 64.79Q379.34 64.79 379.34 64.29L379.34 64.29Q379.34 64.07 379.44 63.93Q379.55 63.78 379.55 63.50L379.55 63.50Q379.55 62.99 379.08 62.67Q378.62 62.34 378.26 62.27L378.26 62.27Q376.38 61.41 373.54 61.16Q370.70 60.90 368.61 60.90L368.61 60.90Q365.66 60.90 361.70 61.26Q357.74 61.62 353.52 62.38Q349.31 63.14 345.53 64.18Q341.75 65.22 339.16 66.66L339.16 66.66Q338.37 67.10 337.04 68.03Q335.70 68.97 335.70 70.05L335.70 70.05Q335.70 70.98 336.93 71.60Q338.15 72.21 340.06 72.57Q341.97 72.93 344.06 73.14Q346.14 73.36 347.84 73.43Q349.53 73.50 350.25 73.50L350.25 73.50Q352.41 73.50 354.57 73.29Q356.73 73.07 358.74 72.50L358.74 72.50L358.96 72.50Q359.46 72.50 359.46 73.07L359.46 73.07Q359.46 73.43 359.03 73.58L359.03 73.58Q358.74 73.72 358.35 73.79Q357.95 73.86 357.59 73.94L357.59 73.94Q352.70 74.94 348.02 74.94ZM341.32 104.25L341.32 104.25Q337.07 104.25 334.37 102.23Q331.67 100.22 330.41 96.87Q329.15 93.52 329.15 89.70L329.15 89.70Q329.15 88.05 329.48 85.67Q329.80 83.30 330.45 81.71L330.45 81.71Q330.59 81.28 330.95 81.28L330.95 81.28Q331.53 81.28 331.53 81.78L331.53 81.78L331.53 81.93Q330.59 84.52 330.59 87.40L330.59 87.40Q330.59 90.42 331.53 93.16L331.53 93.16Q332.25 95.39 333.58 97.62Q334.91 99.86 336.96 101.33Q339.02 102.81 341.61 102.81L341.61 102.81Q345.06 102.81 348.05 101.26Q351.04 99.71 353.52 97.12Q356.01 94.53 358.06 91.36Q360.11 88.19 361.77 84.99Q363.42 81.78 364.65 78.98L364.65 78.98Q362.20 79.34 359.72 80.20Q357.23 81.06 354.93 81.93L354.93 81.93Q353.99 82.29 352.19 82.97Q350.39 83.66 348.38 84.41Q346.36 85.17 344.60 85.67Q342.83 86.18 341.90 86.18L341.90 86.18Q341.18 86.18 340.28 85.74Q339.38 85.31 339.38 84.45L339.38 84.45Q339.38 84.02 339.59 83.73L339.59 83.73Q340.10 82.94 341.46 82.22Q342.83 81.50 344.49 80.85Q346.14 80.20 347.69 79.59Q349.24 78.98 350.10 78.54L350.10 78.54Q352.05 77.68 353.85 76.71Q355.65 75.74 357.30 74.37L357.30 74.37Q357.45 74.22 357.59 74.22L357.59 74.22Q357.95 74.22 357.95 74.73L357.95 74.73Q357.95 75.02 357.74 75.23L357.74 75.23Q355.65 77.25 352.55 78.65Q349.46 80.06 346.86 81.42L346.86 81.42Q345.78 82 344.56 82.72Q343.34 83.44 342.54 84.45L342.54 84.45L342.47 84.59L342.62 84.59Q343.19 84.59 344.88 84.05Q346.58 83.51 348.59 82.79Q350.61 82.07 352.30 81.42Q353.99 80.78 354.71 80.56L354.71 80.56Q357.23 79.70 359.86 78.87Q362.49 78.04 365.15 77.82L365.15 77.82Q365.51 77.03 366.23 75.38Q366.95 73.72 367.89 71.67Q368.82 69.62 369.76 67.67Q370.70 65.73 371.49 64.29Q372.28 62.85 372.78 62.49L372.78 62.49Q373.22 62.13 373.72 61.84Q374.22 61.55 374.87 61.55L374.87 61.55Q375.59 61.55 376.38 62.20Q377.18 62.85 377.18 63.64L377.18 63.64Q377.18 64.00 376.82 64.00L376.82 64.00Q376.17 64.00 375.88 63.35Q375.59 62.70 374.80 62.70L374.80 62.70Q374.37 62.70 374.12 62.92Q373.86 63.14 373.58 63.35L373.58 63.35Q373.29 63.64 372.71 64.97Q372.14 66.30 371.38 68.21Q370.62 70.12 369.87 72.14Q369.11 74.15 368.54 75.70Q367.96 77.25 367.74 77.90L367.74 77.90Q368.68 78.18 369.62 78.76Q370.55 79.34 370.55 80.49L370.55 80.49Q370.55 81.50 369.76 82.61Q368.97 83.73 367.92 84.70Q366.88 85.67 366.09 86.25L366.09 86.25Q366.02 86.25 365.98 86.32Q365.94 86.39 365.80 86.39L365.80 86.39Q365.30 86.39 365.30 85.89L365.30 85.89Q365.30 85.60 366.09 84.66Q366.88 83.73 367.71 82.50Q368.54 81.28 368.54 80.27L368.54 80.27Q368.54 79.12 367.38 78.98L367.38 78.98Q366.81 80.34 366.27 81.78Q365.73 83.22 365.08 84.66L365.08 84.66Q363.35 88.34 361.08 91.86Q358.82 95.39 355.97 98.16Q353.13 100.94 349.49 102.59Q345.86 104.25 341.32 104.25ZM374.01 99.06L373.72 99.06Q373.22 99.06 372.78 98.56Q372.35 98.06 372.35 97.55L372.35 97.55Q372.35 97.34 372.50 97.05L372.50 97.05Q373.29 94.82 373.79 91.90Q374.30 88.98 374.30 86.68L374.30 86.68Q374.30 85.31 374.04 83.76Q373.79 82.22 372.64 81.28L372.64 81.28Q372.42 81.28 372.42 80.99L372.42 80.99Q372.42 80.92 372.57 80.92L372.57 80.92Q372.78 80.92 372.93 81.06L372.93 81.06Q374.58 82.07 375.05 84.34Q375.52 86.61 375.52 88.34L375.52 88.34Q375.52 89.99 375.30 91.72Q375.09 93.45 374.73 95.10L374.73 95.10L374.73 95.46Q374.73 95.46 374.76 95.57Q374.80 95.68 374.87 95.68L374.87 95.68Q375.02 95.68 375.09 95.54Q375.16 95.39 375.23 95.32L375.23 95.32Q376.31 93.66 377.07 91.68Q377.82 89.70 378.54 87.83L378.54 87.83Q378.69 87.26 379.16 86.57Q379.62 85.89 380.34 85.89L380.34 85.89Q380.92 85.89 381.03 86.43Q381.14 86.97 381.14 87.33L381.14 87.33Q381.14 88.19 381.50 88.84Q381.86 89.49 381.86 89.70L381.86 89.70Q381.86 89.99 381.50 90.03Q381.14 90.06 380.99 90.06L380.99 90.06Q380.49 90.06 380.02 89.81Q379.55 89.56 379.05 89.56L379.05 89.56Q378.83 89.56 378.62 89.78L378.62 89.78Q378.18 90.50 377.82 91.29Q377.46 92.08 377.10 92.80L377.10 92.80Q376.60 93.95 375.99 95.18Q375.38 96.40 374.87 97.62L374.87 97.62Q374.73 98.06 374.62 98.45Q374.51 98.85 374.01 99.06L374.01 99.06ZM391.65 101.15L391.65 101.15Q390.14 101.15 389.85 99.71Q389.56 98.27 389.56 97.12L389.56 97.12Q389.56 95.10 389.74 93.12Q389.92 91.14 390.06 89.13L390.06 89.13Q389.78 90.14 389.24 91.94Q388.70 93.74 387.90 95.61Q387.11 97.48 386.10 98.78Q385.10 100.07 383.80 100.07L383.80 100.07Q382.94 100.07 382.50 99.35Q382.07 98.63 381.96 97.66Q381.86 96.69 381.86 96.11L381.86 96.11Q381.86 92.73 383.22 89.13Q384.59 85.53 386.46 82.86L386.46 82.86Q386.46 81.78 387.29 80.63Q388.12 79.48 389.27 78.54Q390.42 77.61 391.29 77.25L391.29 77.25Q391.72 77.10 392.08 77.10L392.08 77.10Q392.44 77.10 392.62 77.39Q392.80 77.68 392.80 78.04L392.80 78.04Q392.80 78.33 392.73 78.65Q392.66 78.98 392.44 79.19L392.44 79.19Q391.79 79.84 391.18 80.34Q390.57 80.85 389.92 81.64L389.92 81.64Q388.48 83.37 386.93 85.82Q385.38 88.26 384.30 90.89Q383.22 93.52 383.22 95.82L383.22 95.82Q383.22 96.11 383.30 96.94Q383.37 97.77 383.62 98.45Q383.87 99.14 384.38 99.14L384.38 99.14Q385.02 99.14 385.56 98.38Q386.10 97.62 386.39 97.12L386.39 97.12Q387.18 95.68 387.90 93.52Q388.62 91.36 389.20 89.13Q389.78 86.90 390.06 85.31L390.06 85.31Q390.21 84.81 390.28 84.34Q390.35 83.87 390.42 83.37L390.42 83.37Q390.50 83.15 390.50 82.83Q390.50 82.50 390.57 82.22L390.57 82.22Q390.71 81.78 391.22 81.78L391.22 81.78Q391.58 81.78 391.86 82Q392.15 82.22 392.15 82.58L392.15 82.58L392.15 82.72Q392.15 85.17 391.83 87.54Q391.50 89.92 391.50 92.44L391.50 92.44Q391.50 93.88 391.58 95.46Q391.65 97.05 391.94 98.56L391.94 98.56Q391.94 98.78 392.08 99.21Q392.22 99.64 392.58 99.64L392.58 99.64Q392.80 99.64 393.05 99.46Q393.30 99.28 393.38 99.21L393.38 99.21Q395.18 97.70 396.47 95.28Q397.77 92.87 398.56 90.71L398.56 90.71Q398.78 90.35 398.92 90.35L398.92 90.35Q399.14 90.35 399.14 90.71L399.14 90.71L399.14 91Q398.78 92.22 397.77 94.28Q396.76 96.33 395.57 98.16Q394.38 100 393.30 100.65L393.30 100.65Q392.58 101.15 391.65 101.15ZM403.38 100.50L403.38 100.50Q403.10 100.50 402.12 100.43Q401.15 100.36 401.01 100.07L401.01 100.07L400.79 99.57Q400.79 99.42 401.08 99.39Q401.37 99.35 401.44 99.35L401.44 99.35L403.82 99.35Q404.46 99.28 405.40 99.03Q406.34 98.78 407.06 98.27Q407.78 97.77 407.78 96.98L407.78 96.98Q407.78 96.47 407.42 96.11Q407.06 95.75 406.70 95.54L406.70 95.54Q405.26 94.60 403.64 93.41Q402.02 92.22 400.94 90.64Q399.86 89.06 399.86 87.11L399.86 87.11Q399.86 85.17 401.12 83.19Q402.38 81.21 404.36 79.52Q406.34 77.82 408.53 76.82Q410.73 75.81 412.60 75.81L412.60 75.81Q413.82 75.81 415.23 76.49Q416.63 77.18 416.63 78.62L416.63 78.62Q416.63 79.05 416.31 79.88Q415.98 80.70 415.41 80.70L415.41 80.70Q415.26 80.70 415.23 80.45Q415.19 80.20 415.19 80.13L415.19 80.13Q415.19 79.70 415.26 79.30Q415.34 78.90 415.34 78.54L415.34 78.54Q415.34 77.25 414.04 77.25L414.04 77.25Q413.03 77.25 411.45 78.00Q409.86 78.76 408.35 79.73Q406.84 80.70 406.05 81.42L406.05 81.42Q405.26 82.22 404.25 83.33Q403.24 84.45 402.52 85.71Q401.80 86.97 401.80 88.19L401.80 88.19Q401.80 89.70 403.02 91Q404.25 92.30 405.87 93.38Q407.49 94.46 408.71 95.46Q409.94 96.47 409.94 97.55L409.94 97.55Q409.94 98.70 408.68 99.35Q407.42 100 405.87 100.25Q404.32 100.50 403.38 100.50ZM420.88 100.50L420.88 100.50Q420.59 100.50 419.62 100.43Q418.65 100.36 418.50 100.07L418.50 100.07L418.29 99.57Q418.29 99.42 418.58 99.39Q418.86 99.35 418.94 99.35L418.94 99.35L421.31 99.35Q421.96 99.28 422.90 99.03Q423.83 98.78 424.55 98.27Q425.27 97.77 425.27 96.98L425.27 96.98Q425.27 96.47 424.91 96.11Q424.55 95.75 424.19 95.54L424.19 95.54Q422.75 94.60 421.13 93.41Q419.51 92.22 418.43 90.64Q417.35 89.06 417.35 87.11L417.35 87.11Q417.35 85.17 418.61 83.19Q419.87 81.21 421.85 79.52Q423.83 77.82 426.03 76.82Q428.22 75.81 430.10 75.81L430.10 75.81Q431.32 75.81 432.72 76.49Q434.13 77.18 434.13 78.62L434.13 78.62Q434.13 79.05 433.80 79.88Q433.48 80.70 432.90 80.70L432.90 80.70Q432.76 80.70 432.72 80.45Q432.69 80.20 432.69 80.13L432.69 80.13Q432.69 79.70 432.76 79.30Q432.83 78.90 432.83 78.54L432.83 78.54Q432.83 77.25 431.54 77.25L431.54 77.25Q430.53 77.25 428.94 78.00Q427.36 78.76 425.85 79.73Q424.34 80.70 423.54 81.42L423.54 81.42Q422.75 82.22 421.74 83.33Q420.74 84.45 420.02 85.71Q419.30 86.97 419.30 88.19L419.30 88.19Q419.30 89.70 420.52 91Q421.74 92.30 423.36 93.38Q424.98 94.46 426.21 95.46Q427.43 96.47 427.43 97.55L427.43 97.55Q427.43 98.70 426.17 99.35Q424.91 100 423.36 100.25Q421.82 100.50 420.88 100.50ZM455.73 102.74L455.73 102.74Q453.86 103.46 452.27 103.46L452.27 103.46Q450.18 103.46 449.00 102.23Q447.81 101.01 447.34 99.06Q446.87 97.12 446.87 95.10L446.87 95.10Q446.87 93.74 447.02 92.44Q447.16 91.14 447.38 90.06L447.38 90.06Q448.53 84.52 451.55 79.91Q454.58 75.30 458.75 71.96Q462.93 68.61 467.61 66.77Q472.29 64.94 476.82 64.94L476.82 64.94Q477.11 64.94 477.11 65.22L477.11 65.22Q477.11 65.51 476.82 65.51L476.82 65.51Q473.66 65.51 469.70 67.13Q465.74 68.75 461.85 71.74Q457.96 74.73 454.94 78.94Q451.91 83.15 450.62 88.34L450.62 88.34Q450.33 89.34 450.11 90.93Q449.90 92.51 449.90 94.24L449.90 94.24Q449.90 96.18 450.29 98.06Q450.69 99.93 451.73 101.12Q452.78 102.30 454.65 102.30L454.65 102.30Q454.86 102.30 455.12 102.30Q455.37 102.30 455.66 102.23L455.66 102.23L455.73 102.23Q455.94 102.23 455.94 102.45L455.94 102.45Q455.94 102.59 455.73 102.74ZM464.51 99.06L464.22 99.06Q463.72 99.06 463.29 98.56Q462.86 98.06 462.86 97.55L462.86 97.55Q462.86 97.34 463.00 97.05L463.00 97.05Q463.79 94.82 464.30 91.90Q464.80 88.98 464.80 86.68L464.80 86.68Q464.80 85.31 464.55 83.76Q464.30 82.22 463.14 81.28L463.14 81.28Q462.93 81.28 462.93 80.99L462.93 80.99Q462.93 80.92 463.07 80.92L463.07 80.92Q463.29 80.92 463.43 81.06L463.43 81.06Q465.09 82.07 465.56 84.34Q466.02 86.61 466.02 88.34L466.02 88.34Q466.02 89.99 465.81 91.72Q465.59 93.45 465.23 95.10L465.23 95.10L465.23 95.46Q465.23 95.46 465.27 95.57Q465.30 95.68 465.38 95.68L465.38 95.68Q465.52 95.68 465.59 95.54Q465.66 95.39 465.74 95.32L465.74 95.32Q466.82 93.66 467.57 91.68Q468.33 89.70 469.05 87.83L469.05 87.83Q469.19 87.26 469.66 86.57Q470.13 85.89 470.85 85.89L470.85 85.89Q471.42 85.89 471.53 86.43Q471.64 86.97 471.64 87.33L471.64 87.33Q471.64 88.19 472.00 88.84Q472.36 89.49 472.36 89.70L472.36 89.70Q472.36 89.99 472.00 90.03Q471.64 90.06 471.50 90.06L471.50 90.06Q470.99 90.06 470.52 89.81Q470.06 89.56 469.55 89.56L469.55 89.56Q469.34 89.56 469.12 89.78L469.12 89.78Q468.69 90.50 468.33 91.29Q467.97 92.08 467.61 92.80L467.61 92.80Q467.10 93.95 466.49 95.18Q465.88 96.40 465.38 97.62L465.38 97.62Q465.23 98.06 465.12 98.45Q465.02 98.85 464.51 99.06L464.51 99.06ZM475.02 100.65L475.02 100.65Q473.80 100.65 473.01 99.93Q472.22 99.21 472.22 97.98L472.22 97.98Q472.22 96.40 473.15 94.42Q474.09 92.44 475.31 90.57Q476.54 88.70 477.47 87.54L477.47 87.54Q476.97 87.18 476.43 86.61Q475.89 86.03 475.89 85.46L475.89 85.46Q475.89 85.02 476.25 85.02L476.25 85.02Q476.61 85.02 477.29 85.64Q477.98 86.25 478.26 86.54L478.26 86.54Q478.77 85.82 479.56 84.84Q480.35 83.87 481.32 83.12Q482.30 82.36 483.23 82.36L483.23 82.36Q484.31 82.36 484.60 83.26Q484.89 84.16 484.89 84.95L484.89 84.95Q484.89 86.97 483.30 87.83L483.30 87.83Q484.46 87.83 485.75 87.26L485.75 87.26Q485.90 87.11 486.11 87.11L486.11 87.11Q486.26 87.11 486.26 87.26L486.26 87.26Q486.26 87.40 486.15 87.47Q486.04 87.54 485.90 87.69L485.90 87.69Q485.18 88.19 484.10 88.23Q483.02 88.26 482.15 88.26L482.15 88.26Q481.86 88.26 481.47 88.34Q481.07 88.41 480.71 88.41L480.71 88.41Q480.14 88.41 479.60 88.34Q479.06 88.26 478.48 88.05L478.48 88.05Q477.83 89.06 476.90 90.75Q475.96 92.44 475.28 94.20Q474.59 95.97 474.59 97.26L474.59 97.26Q474.59 98.99 476.03 98.99L476.03 98.99Q477.40 98.99 479.45 97.88Q481.50 96.76 483.48 95.32Q485.46 93.88 486.47 92.94L486.47 92.94Q486.62 92.87 486.72 92.80Q486.83 92.73 486.90 92.73L486.90 92.73Q487.12 92.73 487.12 92.94L487.12 92.94Q487.12 93.09 486.90 93.30L486.90 93.30Q485.68 94.53 483.56 96.29Q481.43 98.06 479.13 99.35Q476.82 100.65 475.02 100.65ZM480.57 87.54L480.57 87.54Q481.65 87.54 482.15 86.82Q482.66 86.10 482.66 85.10L482.66 85.10Q482.66 84.88 482.58 84.56Q482.51 84.23 482.15 84.23L482.15 84.23Q481.72 84.23 481.11 84.81Q480.50 85.38 479.96 86.03Q479.42 86.68 479.13 87.04L479.13 87.04Q479.27 87.11 479.85 87.33Q480.42 87.54 480.57 87.54ZM496.70 110.73L496.70 110.73Q495.26 110.73 494.18 109.79Q493.10 108.86 492.16 107.52Q491.22 106.19 490.22 105.00Q489.21 103.82 487.98 103.31L487.98 103.31Q488.56 103.89 488.56 104.54L488.56 104.54Q488.56 104.97 488.49 105.04L488.49 105.04Q488.42 104.97 488.06 104.25Q487.70 103.53 486.76 103.24L486.76 103.24Q486.33 103.24 486.33 102.95L486.33 102.95Q486.33 102.45 486.98 102.45L486.98 102.45Q488.49 102.45 489.75 103.49Q491.01 104.54 492.05 105.87Q493.10 107.20 494.03 108.24Q494.97 109.29 495.83 109.29L495.83 109.29Q496.91 109.29 497.52 107.78Q498.14 106.26 498.42 104.14Q498.71 102.02 498.82 100.14Q498.93 98.27 498.93 97.55L498.93 97.55Q498.93 95.68 498.82 93.84Q498.71 92.01 498.57 90.21L498.57 90.21Q497.70 91.58 496.26 93.59Q494.82 95.61 493.10 97.16Q491.37 98.70 489.57 98.70L489.57 98.70Q487.05 98.70 487.05 96.11L487.05 96.11Q487.05 94.24 488.20 91.65Q489.35 89.06 491.19 86.46Q493.02 83.87 495.15 82.18Q497.27 80.49 499.22 80.49L499.22 80.49Q500.08 80.49 500.98 80.99Q501.88 81.50 501.88 82.50L501.88 82.50Q501.88 82.86 501.59 82.86L501.59 82.86Q501.45 82.86 501.23 82.50L501.23 82.50Q501.09 82.14 500.69 82.11Q500.30 82.07 500.01 82.07L500.01 82.07Q499.58 82.07 499.14 82.07Q498.71 82.07 498.28 82.22L498.28 82.22Q496.70 82.50 495.08 84.09Q493.46 85.67 492.16 87.80Q490.86 89.92 490.07 92.12Q489.28 94.31 489.28 95.82L489.28 95.82Q489.28 96.47 489.53 97.05Q489.78 97.62 490.50 97.62L490.50 97.62Q491.44 97.62 492.59 96.62Q493.74 95.61 494.93 94.13Q496.12 92.66 497.06 91.25Q497.99 89.85 498.42 89.13L498.42 89.13Q498.35 88.34 498.21 87.54Q498.06 86.75 497.92 86.03L497.92 86.03Q497.85 85.53 497.67 84.99Q497.49 84.45 497.49 83.87L497.49 83.87Q497.49 82.94 498.21 82.94L498.21 82.94Q498.71 82.94 499.65 83.26Q500.58 83.58 500.87 83.94L500.87 83.94Q501.16 84.16 501.16 84.59L501.16 84.59Q501.16 85.53 500.44 86.93Q499.72 88.34 499.22 89.13L499.22 89.13Q499.94 92.08 500.40 95.10Q500.87 98.13 500.87 101.22L500.87 101.22Q500.87 102.23 500.76 103.82Q500.66 105.40 500.22 106.98Q499.79 108.57 498.96 109.65Q498.14 110.73 496.70 110.73ZM499.07 88.12L499.07 88.12Q499.36 87.62 499.76 86.86Q500.15 86.10 500.15 85.53L500.15 85.53Q500.15 85.38 500.01 85.10L500.01 85.10Q499.72 84.88 499.18 84.45Q498.64 84.02 498.28 83.94L498.28 83.94L498.28 84.30Q498.28 85.24 498.57 86.21Q498.86 87.18 499.07 88.12ZM511.96 101.01L511.96 101.01Q510.81 101.01 510.23 100.22Q509.66 99.42 509.66 98.42L509.66 98.42Q509.66 96.54 510.34 94.85Q511.02 93.16 511.38 91.36L511.38 91.36Q510.74 92.08 509.55 93.45Q508.36 94.82 506.96 96.29Q505.55 97.77 504.22 98.81Q502.89 99.86 502.02 99.86L502.02 99.86Q501.59 99.86 501.59 99.35L501.59 99.35Q501.59 98.92 501.77 98.42Q501.95 97.91 502.10 97.55L502.10 97.55Q502.67 95.97 503.28 94.38Q503.90 92.80 504.47 91.29L504.47 91.29Q504.83 90.50 505.19 89.63Q505.55 88.77 505.84 87.90L505.84 87.90Q506.06 87.26 506.24 86.46Q506.42 85.67 506.42 84.95L506.42 84.95Q506.42 84.74 506.34 84.34Q506.27 83.94 505.91 83.94L505.91 83.94Q505.48 83.94 504.87 84.45Q504.26 84.95 503.90 84.95L503.90 84.95Q503.75 84.95 503.75 84.81L503.75 84.81Q503.75 84.38 504.36 83.98Q504.98 83.58 505.77 83.33Q506.56 83.08 506.92 83.08L506.92 83.08Q507.93 83.08 508.43 83.69Q508.94 84.30 508.94 85.31L508.94 85.31Q508.94 86.25 508.32 87.83Q507.71 89.42 506.81 91.22Q505.91 93.02 505.01 94.64Q504.11 96.26 503.50 97.34Q502.89 98.42 502.89 98.56L502.89 98.56Q502.89 98.78 503.10 98.78L503.10 98.78Q503.68 98.78 504.94 97.59Q506.20 96.40 507.64 94.74Q509.08 93.09 510.27 91.65Q511.46 90.21 511.89 89.70L511.89 89.70Q512.25 89.27 512.82 88.88Q513.40 88.48 513.98 88.48L513.98 88.48Q514.55 88.48 514.55 88.98L514.55 88.98Q514.55 89.27 514.26 89.70L514.26 89.70Q513.76 90.86 513.18 92.51Q512.61 94.17 512.21 95.82Q511.82 97.48 511.82 98.70L511.82 98.70Q511.82 99.21 511.92 99.68Q512.03 100.14 512.68 100.14L512.68 100.14Q513.76 100.14 514.37 99.24Q514.98 98.34 515.20 98.34L515.20 98.34Q515.34 98.34 515.34 98.49L515.34 98.49Q515.34 99.06 514.70 99.64Q514.05 100.22 513.26 100.61Q512.46 101.01 511.96 101.01ZM516.35 104.90L516.35 104.90Q516.21 104.90 516.14 104.54Q516.06 104.18 516.06 104.10L516.06 104.10Q516.06 103.38 516.42 101.94Q516.78 100.50 517.32 98.81Q517.86 97.12 518.40 95.64Q518.94 94.17 519.23 93.38L519.23 93.38Q518.51 89.56 518.22 85.67Q517.94 81.78 517.94 77.97L517.94 77.97Q517.94 77.32 518.01 75.77Q518.08 74.22 518.30 72.53Q518.51 70.84 519.02 69.65Q519.52 68.46 520.38 68.46L520.38 68.46Q520.82 68.46 521.03 68.61L521.03 68.61Q522.90 69.47 523.44 71.56Q523.98 73.65 523.98 75.52L523.98 75.52Q523.98 78.04 523.44 81.03Q522.90 84.02 522.11 86.90Q521.32 89.78 520.38 92.22L520.38 92.22Q520.53 92.87 520.74 94.17Q520.96 95.46 521.36 96.87Q521.75 98.27 522.36 99.24Q522.98 100.22 523.84 100.22L523.84 100.22Q524.63 100.22 525.10 99.46Q525.57 98.70 525.82 97.77Q526.07 96.83 526.22 96.33L526.22 96.33Q526.29 96.18 526.40 95.97Q526.50 95.75 526.72 95.75L526.72 95.75Q526.94 95.75 526.94 96.04L526.94 96.04L526.94 96.18Q526.94 96.98 526.58 98.16Q526.22 99.35 525.53 100.29Q524.85 101.22 523.70 101.22L523.70 101.22Q522.47 101.22 521.61 100Q520.74 98.78 520.24 97.19Q519.74 95.61 519.52 94.67L519.52 94.67Q518.66 97.12 517.94 99.57Q517.22 102.02 516.57 104.54L516.57 104.54Q516.57 104.61 516.53 104.75Q516.50 104.90 516.35 104.90ZM520.17 90.57L520.17 90.57Q521.32 87.18 522.22 83.15Q523.12 79.12 523.12 75.59L523.12 75.59Q523.12 75.16 523.05 74.08Q522.98 73 522.69 72.10Q522.40 71.20 521.75 71.20L521.75 71.20Q521.10 71.20 520.82 72.35Q520.53 73.50 520.46 73.94L520.46 73.94Q520.10 76.82 520.02 79.84Q519.95 82.86 519.95 85.74L519.95 85.74Q519.95 88.05 520.17 90.57ZM536.66 101.15L536.66 101.15Q535.14 101.15 534.86 99.71Q534.57 98.27 534.57 97.12L534.57 97.12Q534.57 95.10 534.75 93.12Q534.93 91.14 535.07 89.13L535.07 89.13Q534.78 90.14 534.24 91.94Q533.70 93.74 532.91 95.61Q532.12 97.48 531.11 98.78Q530.10 100.07 528.81 100.07L528.81 100.07Q527.94 100.07 527.51 99.35Q527.08 98.63 526.97 97.66Q526.86 96.69 526.86 96.11L526.86 96.11Q526.86 92.73 528.23 89.13Q529.60 85.53 531.47 82.86L531.47 82.86Q531.47 81.78 532.30 80.63Q533.13 79.48 534.28 78.54Q535.43 77.61 536.30 77.25L536.30 77.25Q536.73 77.10 537.09 77.10L537.09 77.10Q537.45 77.10 537.63 77.39Q537.81 77.68 537.81 78.04L537.81 78.04Q537.81 78.33 537.74 78.65Q537.66 78.98 537.45 79.19L537.45 79.19Q536.80 79.84 536.19 80.34Q535.58 80.85 534.93 81.64L534.93 81.64Q533.49 83.37 531.94 85.82Q530.39 88.26 529.31 90.89Q528.23 93.52 528.23 95.82L528.23 95.82Q528.23 96.11 528.30 96.94Q528.38 97.77 528.63 98.45Q528.88 99.14 529.38 99.14L529.38 99.14Q530.03 99.14 530.57 98.38Q531.11 97.62 531.40 97.12L531.40 97.12Q532.19 95.68 532.91 93.52Q533.63 91.36 534.21 89.13Q534.78 86.90 535.07 85.31L535.07 85.31Q535.22 84.81 535.29 84.34Q535.36 83.87 535.43 83.37L535.43 83.37Q535.50 83.15 535.50 82.83Q535.50 82.50 535.58 82.22L535.58 82.22Q535.72 81.78 536.22 81.78L536.22 81.78Q536.58 81.78 536.87 82Q537.16 82.22 537.16 82.58L537.16 82.58L537.16 82.72Q537.16 85.17 536.84 87.54Q536.51 89.92 536.51 92.44L536.51 92.44Q536.51 93.88 536.58 95.46Q536.66 97.05 536.94 98.56L536.94 98.56Q536.94 98.78 537.09 99.21Q537.23 99.64 537.59 99.64L537.59 99.64Q537.81 99.64 538.06 99.46Q538.31 99.28 538.38 99.21L538.38 99.21Q540.18 97.70 541.48 95.28Q542.78 92.87 543.57 90.71L543.57 90.71Q543.78 90.35 543.93 90.35L543.93 90.35Q544.14 90.35 544.14 90.71L544.14 90.71L544.14 91Q543.78 92.22 542.78 94.28Q541.77 96.33 540.58 98.16Q539.39 100 538.31 100.65L538.31 100.65Q537.59 101.15 536.66 101.15ZM545.37 99.06L545.08 99.06Q544.58 99.06 544.14 98.56Q543.71 98.06 543.71 97.55L543.71 97.55Q543.71 97.34 543.86 97.05L543.86 97.05Q544.65 94.82 545.15 91.90Q545.66 88.98 545.66 86.68L545.66 86.68Q545.66 85.31 545.40 83.76Q545.15 82.22 544.00 81.28L544.00 81.28Q543.78 81.28 543.78 80.99L543.78 80.99Q543.78 80.92 543.93 80.92L543.93 80.92Q544.14 80.92 544.29 81.06L544.29 81.06Q545.94 82.07 546.41 84.34Q546.88 86.61 546.88 88.34L546.88 88.34Q546.88 89.99 546.66 91.72Q546.45 93.45 546.09 95.10L546.09 95.10L546.09 95.46Q546.09 95.46 546.12 95.57Q546.16 95.68 546.23 95.68L546.23 95.68Q546.38 95.68 546.45 95.54Q546.52 95.39 546.59 95.32L546.59 95.32Q547.67 93.66 548.43 91.68Q549.18 89.70 549.90 87.83L549.90 87.83Q550.05 87.26 550.52 86.57Q550.98 85.89 551.70 85.89L551.70 85.89Q552.28 85.89 552.39 86.43Q552.50 86.97 552.50 87.33L552.50 87.33Q552.50 88.19 552.86 88.84Q553.22 89.49 553.22 89.70L553.22 89.70Q553.22 89.99 552.86 90.03Q552.50 90.06 552.35 90.06L552.35 90.06Q551.85 90.06 551.38 89.81Q550.91 89.56 550.41 89.56L550.41 89.56Q550.19 89.56 549.98 89.78L549.98 89.78Q549.54 90.50 549.18 91.29Q548.82 92.08 548.46 92.80L548.46 92.80Q547.96 93.95 547.35 95.18Q546.74 96.40 546.23 97.62L546.23 97.62Q546.09 98.06 545.98 98.45Q545.87 98.85 545.37 99.06L545.37 99.06ZM547.17 105.11L547.17 105.11Q546.95 105.11 546.95 104.90L546.95 104.90Q546.95 104.54 547.24 104.54L547.24 104.54Q547.46 104.61 547.89 104.61L547.89 104.61Q549.76 104.61 551.99 103.71Q554.22 102.81 556.24 101.66L556.24 101.66Q559.41 99.78 562.07 96.80Q564.74 93.81 566.79 90.24Q568.84 86.68 569.96 82.97Q571.07 79.26 571.07 75.95L571.07 75.95Q571.07 71.78 568.98 68.86Q566.90 65.94 562.07 65.66L562.07 65.66Q561.78 65.66 561.78 65.44L561.78 65.44Q561.78 65.15 562.07 65.08L562.07 65.08Q562.43 65.01 562.90 64.97Q563.37 64.94 564.02 64.94L564.02 64.94Q565.38 64.94 567.11 65.37Q568.84 65.80 570.42 66.95Q572.01 68.10 573.05 70.30Q574.10 72.50 574.10 75.95L574.10 75.95Q574.10 79.77 572.51 83.76Q570.93 87.76 568.34 91.47Q565.74 95.18 562.65 98.13Q559.55 101.08 556.46 102.81L556.46 102.81Q554.37 103.96 552.24 104.57Q550.12 105.18 548.25 105.18L548.25 105.18Q547.96 105.18 547.71 105.18Q547.46 105.18 547.17 105.11Z"/></svg>