<svg xmlns="http://www.w3.org/2000/svg" width="800" height="150" viewBox="0 0 800 150"><path fill="#000" d="M103.58 103.60L103.58 103.60Q96.59 103.60 91.77 100.29L91.77 100.29Q86.37 96.47 86.37 89.85L86.37 89.85Q86.37 84.81 90.26 81.06L90.26 81.06Q94.22 77.25 99.11 77.25L99.11 77.25Q102.28 77.25 104.55 79.16Q106.82 81.06 106.82 84.30L106.82 84.30Q106.82 85.46 105.59 85.46L105.59 85.46Q104.80 85.46 104.37 84.02L104.37 84.02Q103.72 81.93 103.07 81.28L103.07 81.28Q101.92 79.77 99.26 79.77L99.26 79.77Q95.22 79.77 91.98 82.79L91.98 82.79Q88.82 85.82 88.82 89.78L88.82 89.78Q88.82 95.25 93.35 98.42L93.35 98.42Q97.38 101.15 103.36 101.15L103.36 101.15Q107.39 101.15 110.88 100.18Q114.38 99.21 117.33 97.19L117.33 97.19Q123.74 92.73 123.74 85.89L123.74 85.89Q123.74 78.90 117.04 75.59L117.04 75.59L104.73 71.06Q98.10 68.10 98.10 61.98L98.10 61.98Q98.10 56.01 103.50 52.48L103.50 52.48Q108.18 49.46 114.30 49.46L114.30 49.46Q118.98 49.46 122.22 51.83L122.22 51.83Q125.90 54.50 125.90 59.18L125.90 59.18Q125.90 62.13 123.66 64.14L123.66 64.14Q121.58 66.16 118.55 66.16L118.55 66.16Q116.75 66.16 115.53 65.08Q114.30 64.00 114.30 62.20L114.30 62.20Q114.30 60.98 115.53 60.98L115.53 60.98Q116.39 60.98 116.82 62.63L116.82 62.63Q117.11 63.78 118.62 63.78L118.62 63.78Q120.28 63.78 121.83 62.45Q123.38 61.12 123.38 59.18L123.38 59.18Q123.38 55.50 120.50 53.56L120.50 53.56Q117.98 51.90 114.02 51.90L114.02 51.90Q109.12 51.90 105.09 54.42L105.09 54.42Q100.55 57.30 100.55 61.77L100.55 61.77Q100.55 66.88 107.18 69.47L107.18 69.47L119.56 74.22Q126.18 78.04 126.18 85.82L126.18 85.82Q126.18 93.88 119.13 98.99L119.13 98.99Q112.72 103.60 103.58 103.60ZM138.42 100.94L138.42 100.94Q133.02 100.94 130.07 97.55Q127.12 94.17 127.12 88.77L127.12 88.77Q127.12 80.70 132.52 75.66L132.52 75.66Q137.20 71.20 142.82 71.20L142.82 71.20Q145.77 71.20 147.60 72.68Q149.44 74.15 149.44 76.89L149.44 76.89Q149.44 81.21 144.54 83.94L144.54 83.94Q140.30 86.25 134.82 86.25L134.82 86.25Q131.87 86.25 130.00 85.53L130.00 85.53Q129.86 86.32 129.75 87.15Q129.64 87.98 129.64 88.77L129.64 88.77Q129.64 93.16 131.87 95.93Q134.10 98.70 138.35 98.70L138.35 98.70Q145.98 98.70 150.52 91.58L150.52 91.58Q151.10 90.71 151.53 90.21Q151.96 89.70 152.54 89.70L152.54 89.70Q153.26 89.70 153.26 90.57L153.26 90.57Q153.26 91.07 153.15 91.36Q153.04 91.65 152.97 91.79L152.97 91.79Q150.52 95.97 146.63 98.45Q142.74 100.94 138.42 100.94ZM134.61 83.80L134.61 83.80Q139.22 83.80 142.82 82L142.82 82Q146.99 79.98 146.99 76.74L146.99 76.74Q146.99 73.65 142.60 73.65L142.60 73.65Q138.64 73.65 135.26 76.60L135.26 76.60Q132.23 79.19 130.65 83.15L130.65 83.15Q132.30 83.80 134.61 83.80ZM172.41 100.58L172.41 100.58Q169.74 100.58 168.23 99.14Q166.72 97.70 166.72 95.10L166.72 95.10Q166.72 94.17 167.22 92.15Q167.73 90.14 168.59 87.69L168.59 87.69Q169.60 84.74 170.14 82.94Q170.68 81.14 170.82 80.42L170.82 80.42Q170.97 79.62 171.04 78.98Q171.11 78.33 171.11 77.75L171.11 77.75Q171.11 73.65 167.66 73.65L167.66 73.65Q162.76 73.65 158.22 81.28L158.22 81.28Q155.92 85.17 152.75 93.45L152.75 93.45Q152.46 94.46 151.85 95.93Q151.24 97.41 150.45 99.35L150.45 99.35Q150.09 100.14 149.51 100.14L149.51 100.14Q149.01 100.14 148.58 99.68Q148.14 99.21 148.14 98.78L148.14 98.78Q148.14 98.49 150.59 91.79L150.59 91.79Q155.27 78.83 155.27 71.85L155.27 71.85Q155.27 70.48 156.50 70.48L156.50 70.48Q157.22 70.48 157.65 71.45Q158.08 72.42 158.08 73.14L158.08 73.14Q158.08 75.09 157.43 77.82L157.43 77.82Q162.33 71.13 168.02 71.13L168.02 71.13Q173.99 71.13 173.99 77.61L173.99 77.61Q173.99 80.42 171.04 88.84L171.04 88.84Q170.54 90.28 170.07 92.01Q169.60 93.74 169.60 95.18L169.60 95.18Q169.60 96.47 170.14 97.30Q170.68 98.13 172.12 98.13L172.12 98.13Q173.70 98.13 175.50 97.16Q177.30 96.18 178.96 94.67Q180.62 93.16 181.62 91.50L181.62 91.50Q182.27 90.50 182.67 89.99Q183.06 89.49 183.64 89.49L183.64 89.49Q184.50 89.49 184.50 90.50L184.50 90.50Q184.50 90.64 184.36 91.14Q184.22 91.65 184.07 91.79L184.07 91.79Q182.85 94.10 180.90 96.11Q178.96 98.13 176.73 99.35Q174.50 100.58 172.41 100.58ZM209.56 101.15L209.56 101.15Q203.51 101.15 202.07 94.10L202.07 94.10Q197.03 100.43 190.77 100.43L190.77 100.43Q186.52 100.43 184.14 97.05L184.14 97.05Q181.98 94.02 181.98 89.70L181.98 89.70Q181.98 82.22 187.96 76.67L187.96 76.67Q193.29 71.70 199.05 71.70L199.05 71.70Q201.93 71.70 203.58 73.36L203.58 73.36Q208.48 55.22 215.32 55.22L215.32 55.22Q219.14 55.22 219.14 59.03L219.14 59.03Q219.14 63.71 213.09 75.30L213.09 75.30Q212.30 76.82 210.03 80.78Q207.76 84.74 204.02 91.14L204.02 91.14Q204.23 94.89 205.67 96.87Q207.11 98.85 209.63 98.85L209.63 98.85Q212.66 98.85 215.07 96.58Q217.48 94.31 219.06 91.58L219.06 91.58Q219.42 91 220.04 90.35Q220.65 89.70 221.15 89.70L221.15 89.70Q221.51 89.70 221.66 89.96Q221.80 90.21 221.80 90.50L221.80 90.50Q221.80 90.71 221.69 91.18Q221.58 91.65 221.51 91.79L221.51 91.79Q220.43 93.88 218.60 96.08Q216.76 98.27 214.46 99.71Q212.15 101.15 209.56 101.15ZM204.02 86.03L204.02 86.03Q206.68 81.42 208.48 78.29Q210.28 75.16 211.22 73.43L211.22 73.43Q216.04 64.36 216.69 60.26L216.69 60.26Q216.76 59.97 216.76 59.72Q216.76 59.46 216.76 59.25L216.76 59.25Q216.76 57.59 215.46 57.59L215.46 57.59Q213.59 57.59 211.14 61.12L211.14 61.12Q208.26 65.44 206.18 72.93L206.18 72.93Q204.38 79.62 204.02 86.03ZM190.84 97.98L190.84 97.98Q196.96 97.98 201.57 90.57L201.57 90.57Q201.50 89.92 201.50 89.27Q201.50 88.62 201.50 87.98L201.50 87.98Q201.50 86.54 201.60 85.10Q201.71 83.66 201.86 82.07L201.86 82.07Q201.14 82.29 200.06 82.29L200.06 82.29Q198.11 82.29 198.11 81.14L198.11 81.14Q198.11 79.77 199.41 79.77L199.41 79.77Q199.62 79.77 199.84 79.84L199.84 79.84L200.27 79.84Q202.07 79.84 202.36 78.69L202.36 78.69L202.79 76.96Q202.50 74.30 198.83 74.30L198.83 74.30Q193.22 74.30 188.82 79.12L188.82 79.12Q184.50 83.94 184.50 89.63L184.50 89.63Q184.50 93.09 185.94 95.39L185.94 95.39Q187.67 97.98 190.84 97.98ZM253.34 102.23L253.34 102.23Q247.07 102.23 242.54 98.99L242.54 98.99Q237.50 95.32 237.50 89.20L237.50 89.20Q237.50 83.22 241.31 79.41L241.31 79.41Q245.13 75.59 251.03 75.59L251.03 75.59Q255.06 75.59 257.94 77.61L257.94 77.61Q261.18 79.84 261.18 83.87L261.18 83.87Q261.18 85.17 260.46 86.10L260.46 86.10Q259.60 87.33 258.30 87.33L258.30 87.33Q256.94 87.33 256.94 85.96L256.94 85.96Q256.94 84.81 258.16 84.66L258.16 84.66Q258.66 84.66 258.66 83.94L258.66 83.94Q258.66 81.21 256.22 79.62L256.22 79.62Q253.98 78.18 251.03 78.18L251.03 78.18Q246.21 78.18 243.18 81.28Q240.16 84.38 240.16 89.20L240.16 89.20Q240.16 94.24 244.41 97.19L244.41 97.19Q248.15 99.64 253.70 99.64L253.70 99.64Q272.20 99.64 278.46 71.20L278.46 71.20L268.38 71.20Q267.16 71.20 267.16 69.90L267.16 69.90Q267.16 68.61 268.38 68.61L268.38 68.61L278.97 68.61Q280.70 61.48 284.44 56.22L284.44 56.22Q281.92 55.72 274.65 52.98L274.65 52.98Q268.74 50.68 263.70 50.68L263.70 50.68Q258.02 50.68 253.77 53.42L253.77 53.42Q249.02 56.51 249.02 61.77L249.02 61.77Q249.02 64.00 250.13 65.51Q251.25 67.02 253.26 67.02L253.26 67.02Q254.27 67.02 255.35 66.48Q256.43 65.94 256.86 65.94L256.86 65.94Q258.02 65.94 258.02 67.17L258.02 67.17Q258.02 68.10 256.36 68.90L256.36 68.90Q254.85 69.62 253.62 69.62L253.62 69.62Q250.31 69.62 248.37 67.38Q246.42 65.15 246.42 61.77L246.42 61.77Q246.42 55.36 251.97 51.54L251.97 51.54Q256.94 48.09 263.56 48.09L263.56 48.09Q268.96 48.09 274.43 50.03L274.43 50.03L280.34 52.34Q282.14 52.98 283.65 53.42Q285.16 53.85 286.46 53.99L286.46 53.99Q289.77 50.46 293.37 50.46L293.37 50.46Q296.18 50.46 296.18 52.84L296.18 52.84Q296.18 54.57 293.37 55.79L293.37 55.79Q290.99 56.80 289.05 56.80L289.05 56.80Q288.90 56.80 288.51 56.80Q288.11 56.80 287.46 56.73L287.46 56.73Q283.43 61.41 281.70 68.61L281.70 68.61L284.66 68.61Q285.95 68.61 285.95 69.90L285.95 69.90Q285.95 71.20 284.66 71.20L284.66 71.20L281.13 71.20Q274.50 102.23 253.34 102.23ZM293.30 101.15L293.30 101.15Q287.32 101.15 286.82 92.94L286.82 92.94Q286.46 86.82 290.56 74.51L290.56 74.51Q294.23 63.57 297.83 57.09L297.83 57.09Q302.08 49.38 305.90 49.38L305.90 49.38Q309.14 49.38 309.14 54.57L309.14 54.57Q309.14 60.04 304.96 67.31L304.96 67.31Q298.34 78.83 290.27 85.38L290.27 85.38Q289.91 87.26 289.70 88.88Q289.48 90.50 289.48 91.94L289.48 91.94Q289.48 98.78 293.73 98.78L293.73 98.78Q296.25 98.78 298.66 97.37Q301.07 95.97 304.02 91.58L304.02 91.58Q304.24 91.29 304.92 90.39Q305.61 89.49 306.11 89.49L306.11 89.49Q306.83 89.49 306.83 90.42L306.83 90.42Q306.83 90.57 306.76 91Q306.69 91.43 306.47 91.79L306.47 91.79Q305.32 94.02 303.45 96.18Q301.58 98.34 299.02 99.75Q296.46 101.15 293.30 101.15ZM291.42 81.06L291.42 81.06Q297.90 74.44 302.73 66.02L302.73 66.02Q306.76 58.96 306.76 54.06L306.76 54.06Q306.76 51.76 305.75 51.76L305.75 51.76Q305.03 51.76 303.81 52.98L303.81 52.98Q301.29 55.72 298.41 62.34L298.41 62.34Q296.61 66.38 294.88 71.06Q293.15 75.74 291.42 81.06ZM314.25 100.65L314.25 100.65Q309.71 100.65 307.19 97.05L307.19 97.05Q305.18 93.95 305.18 89.20L305.18 89.20Q305.18 84.30 307.48 79.12L307.48 79.12Q310.00 73.50 314.18 71.42L314.18 71.42Q315.76 70.62 316.91 70.62L316.91 70.62Q318.14 70.62 318.93 71.42L318.93 71.42Q320.73 70.19 322.53 70.19L322.53 70.19Q325.91 70.19 327.71 73.72L327.71 73.72Q329.15 76.46 329.15 79.98L329.15 79.98Q329.15 86.54 325.12 93.16L325.12 93.16Q320.58 100.65 314.25 100.65ZM314.18 98.13L314.18 98.13Q319.29 98.13 323.25 91.58L323.25 91.58Q326.70 85.74 326.70 80.06L326.70 80.06Q326.70 77.68 325.70 75.30L325.70 75.30Q324.54 72.64 322.53 72.64L322.53 72.64Q320.30 72.64 318.64 75.16L318.64 75.16Q316.98 77.68 316.98 80.13L316.98 80.13Q316.98 83.15 319.22 83.15L319.22 83.15Q320.37 83.15 320.37 84.38L320.37 84.38Q320.37 85.60 319.22 85.60L319.22 85.60Q314.61 85.60 314.61 80.27L314.61 80.27Q314.61 76.24 317.13 73.07L317.13 73.07Q317.06 73 316.91 73L316.91 73Q316.55 73 315.26 73.58L315.26 73.58Q311.87 75.45 309.64 80.34L309.64 80.34Q307.62 84.66 307.62 89.13L307.62 89.13Q307.62 92.73 309.06 95.25L309.06 95.25Q310.86 98.13 314.18 98.13ZM337.58 100.79L337.58 100.79Q330.95 100.79 330.95 92.73L330.95 92.73Q330.95 91.79 331.06 90.86Q331.17 89.92 331.31 88.98L331.31 88.98Q331.53 87.69 332.25 85.31Q332.97 82.94 334.19 79.55L334.19 79.55Q336.93 71.78 338.01 71.78L338.01 71.78Q339.30 71.78 339.30 72.93L339.30 72.93Q339.30 73.29 339.23 73.43L339.23 73.43Q333.40 87.26 333.40 92.94L333.40 92.94Q333.40 98.27 337.58 98.27L337.58 98.27Q343.84 98.27 348.23 85.53L348.23 85.53Q348.81 83.51 349.78 80.56Q350.75 77.61 352.12 73.79L352.12 73.79Q352.48 73.22 353.13 73.22L353.13 73.22Q354.71 73.22 354.50 74.44L354.50 74.44Q353.92 76.17 353.06 79.19Q352.19 82.22 350.97 86.61L350.97 86.61Q349.89 91.14 349.89 93.38L349.89 93.38Q349.89 97.84 353.56 97.84L353.56 97.84Q358.74 97.84 363.50 90.28L363.50 90.28Q367.89 83.30 367.89 77.18L367.89 77.18Q367.89 73 366.16 70.77L366.16 70.77Q364.79 68.82 362.70 68.82L362.70 68.82Q360.18 68.82 360.18 71.27L360.18 71.27Q360.18 72.42 360.87 72.75Q361.55 73.07 362.24 73.25Q362.92 73.43 362.92 74.22L362.92 74.22Q362.92 75.45 361.77 75.45L361.77 75.45Q360.11 75.45 358.92 74.22Q357.74 73 357.74 71.34L357.74 71.34Q357.74 69.11 359.21 67.78Q360.69 66.45 362.78 66.45L362.78 66.45Q365.73 66.45 367.89 68.97L367.89 68.97Q370.41 71.92 370.41 77.10L370.41 77.10Q370.41 84.23 365.94 91.50L365.94 91.50Q360.62 100.29 352.98 100.29L352.98 100.29Q347.51 100.29 347.44 93.09L347.44 93.09Q343.12 100.79 337.58 100.79ZM383.73 100.94L383.73 100.94Q378.33 100.94 375.38 97.55Q372.42 94.17 372.42 88.77L372.42 88.77Q372.42 80.70 377.82 75.66L377.82 75.66Q382.50 71.20 388.12 71.20L388.12 71.20Q391.07 71.20 392.91 72.68Q394.74 74.15 394.74 76.89L394.74 76.89Q394.74 81.21 389.85 83.94L389.85 83.94Q385.60 86.25 380.13 86.25L380.13 86.25Q377.18 86.25 375.30 85.53L375.30 85.53Q375.16 86.32 375.05 87.15Q374.94 87.98 374.94 88.77L374.94 88.77Q374.94 93.16 377.18 95.93Q379.41 98.70 383.66 98.70L383.66 98.70Q391.29 98.70 395.82 91.58L395.82 91.58Q396.40 90.71 396.83 90.21Q397.26 89.70 397.84 89.70L397.84 89.70Q398.56 89.70 398.56 90.57L398.56 90.57Q398.56 91.07 398.45 91.36Q398.34 91.65 398.27 91.79L398.27 91.79Q395.82 95.97 391.94 98.45Q388.05 100.94 383.73 100.94ZM379.91 83.80L379.91 83.80Q384.52 83.80 388.12 82L388.12 82Q392.30 79.98 392.30 76.74L392.30 76.74Q392.30 73.65 387.90 73.65L387.90 73.65Q383.94 73.65 380.56 76.60L380.56 76.60Q377.54 79.19 375.95 83.15L375.95 83.15Q377.61 83.80 379.91 83.80ZM415.12 100.72L415.12 100.72Q412.74 100.72 411.20 98.96Q409.65 97.19 409.65 93.88L409.65 93.88Q409.65 87.83 414.76 78.40L414.76 78.40Q412.60 79.19 410.87 79.19L410.87 79.19Q407.34 79.19 404.68 76.31L404.68 76.31Q404.25 78.69 403.13 81.53Q402.02 84.38 400.72 87.08Q399.42 89.78 398.27 91.79L398.27 91.79Q397.98 92.37 397.55 92.51Q397.12 92.66 396.90 92.66L396.90 92.66Q395.82 92.66 395.82 91.58L395.82 91.58Q397.26 89.27 398.70 86.21Q400.14 83.15 401.40 79.77Q402.66 76.38 403.31 73.22L403.31 73.22Q402.88 71.49 402.88 69.33L402.88 69.33Q402.88 65.80 404.46 65.80L404.46 65.80Q406.19 65.80 406.19 69.33L406.19 69.33Q406.19 70.12 406.08 71.13Q405.98 72.14 405.83 73.29L405.83 73.29Q406.12 74.80 407.67 75.74Q409.22 76.67 410.94 76.67L410.94 76.67Q413.39 76.67 417.21 74.15L417.21 74.15Q418.00 73.58 418.14 73.58L418.14 73.58Q419.51 73.58 419.51 74.87L419.51 74.87Q419.51 75.02 419.48 75.16Q419.44 75.30 419.37 75.45L419.37 75.45Q417.57 78.54 416.13 81.39Q414.69 84.23 413.61 86.97L413.61 86.97Q412.17 90.64 412.17 93.66L412.17 93.66Q412.17 98.27 415.19 98.27L415.19 98.27Q417.57 98.27 419.55 96.15Q421.53 94.02 423.11 91.58L423.11 91.58Q423.47 91 424.16 90.06Q424.84 89.13 425.34 89.13L425.34 89.13Q425.70 89.13 425.88 89.27Q426.06 89.42 426.06 89.99L426.06 89.99Q426.06 90.35 425.88 91Q425.70 91.65 425.56 91.79L425.56 91.79Q423.62 95.32 421.13 98.02Q418.65 100.72 415.12 100.72ZM432.69 101.44L432.69 101.44Q428.66 101.44 425.92 99.35L425.92 99.35Q422.82 96.98 422.82 92.94L422.82 92.94Q422.82 90.35 424.12 87.98Q425.42 85.60 427.65 84.30L427.65 84.30Q429.09 82.22 431.03 79.77Q432.98 77.32 435.42 74.44L435.42 74.44Q434.56 72.14 434.56 70.12L434.56 70.12Q434.56 67.74 435.42 65.94L435.42 65.94Q436.58 63.50 438.88 63.50L438.88 63.50Q442.26 63.50 442.26 67.02L442.26 67.02Q442.26 69.26 441.11 70.84L441.11 70.84L438.38 74.73L442.91 81.06Q444.21 82.86 444.82 84.74Q445.43 86.61 445.43 88.41L445.43 88.41Q445.43 93.81 441.76 97.62L441.76 97.62Q438.09 101.44 432.69 101.44ZM437.30 72.28L437.30 72.28Q438.30 71.13 439.02 69.98L439.02 69.98Q440.03 68.10 440.03 67.10L440.03 67.10Q440.03 66.02 438.88 66.02L438.88 66.02Q436.94 66.02 436.94 70.19L436.94 70.19Q436.94 70.70 437.04 71.20Q437.15 71.70 437.30 72.28ZM432.62 98.92L432.62 98.92Q437.15 98.92 440.03 95.90L440.03 95.90Q442.98 92.80 442.98 88.41L442.98 88.41Q442.98 85.38 440.68 82.22L440.68 82.22L436.65 76.74L431.32 83.37Q436.36 83.66 436.36 88.34L436.36 88.34Q436.36 89.78 435.35 91.22L435.35 91.22Q434.85 91.94 434.06 91.94L434.06 91.94Q433.05 91.94 433.05 90.64L433.05 90.64Q433.05 90.21 433.48 89.49Q433.91 88.77 433.91 88.34L433.91 88.34Q433.91 85.82 431.18 85.82L431.18 85.82Q430.31 85.82 429.52 86.03L429.52 86.03Q429.59 87.54 428.33 89.38Q427.07 91.22 425.34 92.44L425.34 92.44Q425.78 98.92 432.62 98.92ZM483.38 103.31L483.38 103.31Q481.58 103.31 479.70 102.16L479.70 102.16Q476.32 100.07 474.66 95.18L474.66 95.18Q473.30 91.36 473.30 86.61L473.30 86.61Q473.30 77.54 477.76 68.03L477.76 68.03Q482.58 58.10 489.71 53.49L489.71 53.49Q493.10 51.18 495.76 51.18L495.76 51.18Q497.49 51.18 497.49 52.55L497.49 52.55Q497.49 53.78 496.41 53.78L496.41 53.78Q496.19 53.78 496.12 53.70L496.12 53.70L495.90 53.70Q495.69 53.63 495.47 53.63L495.47 53.63Q493.67 53.63 491.01 55.65L491.01 55.65Q484.53 60.33 480.28 69.54L480.28 69.54Q476.18 78.40 476.18 86.90L476.18 86.90Q476.18 90.06 476.82 92.80L476.82 92.80Q477.62 95.97 479.06 98.06L479.06 98.06Q481 100.86 483.45 100.86L483.45 100.86Q484.60 100.86 484.60 102.09L484.60 102.09Q484.60 103.31 483.38 103.31ZM511.17 100.72L511.17 100.72Q508.79 100.72 507.24 98.96Q505.70 97.19 505.70 93.88L505.70 93.88Q505.70 87.83 510.81 78.40L510.81 78.40Q508.65 79.19 506.92 79.19L506.92 79.19Q503.39 79.19 500.73 76.31L500.73 76.31Q500.30 78.69 499.18 81.53Q498.06 84.38 496.77 87.08Q495.47 89.78 494.32 91.79L494.32 91.79Q494.03 92.37 493.60 92.51Q493.17 92.66 492.95 92.66L492.95 92.66Q491.87 92.66 491.87 91.58L491.87 91.58Q493.31 89.27 494.75 86.21Q496.19 83.15 497.45 79.77Q498.71 76.38 499.36 73.22L499.36 73.22Q498.93 71.49 498.93 69.33L498.93 69.33Q498.93 65.80 500.51 65.80L500.51 65.80Q502.24 65.80 502.24 69.33L502.24 69.33Q502.24 70.12 502.13 71.13Q502.02 72.14 501.88 73.29L501.88 73.29Q502.17 74.80 503.72 75.74Q505.26 76.67 506.99 76.67L506.99 76.67Q509.44 76.67 513.26 74.15L513.26 74.15Q514.05 73.58 514.19 73.58L514.19 73.58Q515.56 73.58 515.56 74.87L515.56 74.87Q515.56 75.02 515.52 75.16Q515.49 75.30 515.42 75.45L515.42 75.45Q513.62 78.54 512.18 81.39Q510.74 84.23 509.66 86.97L509.66 86.97Q508.22 90.64 508.22 93.66L508.22 93.66Q508.22 98.27 511.24 98.27L511.24 98.27Q513.62 98.27 515.60 96.15Q517.58 94.02 519.16 91.58L519.16 91.58Q519.52 91 520.20 90.06Q520.89 89.13 521.39 89.13L521.39 89.13Q521.75 89.13 521.93 89.27Q522.11 89.42 522.11 89.99L522.11 89.99Q522.11 90.35 521.93 91Q521.75 91.65 521.61 91.79L521.61 91.79Q519.66 95.32 517.18 98.02Q514.70 100.72 511.17 100.72ZM531.04 100.94L531.04 100.94Q525.64 100.94 522.69 97.55Q519.74 94.17 519.74 88.77L519.74 88.77Q519.74 80.70 525.14 75.66L525.14 75.66Q529.82 71.20 535.43 71.20L535.43 71.20Q538.38 71.20 540.22 72.68Q542.06 74.15 542.06 76.89L542.06 76.89Q542.06 81.21 537.16 83.94L537.16 83.94Q532.91 86.25 527.44 86.25L527.44 86.25Q524.49 86.25 522.62 85.53L522.62 85.53Q522.47 86.32 522.36 87.15Q522.26 87.98 522.26 88.77L522.26 88.77Q522.26 93.16 524.49 95.93Q526.72 98.70 530.97 98.70L530.97 98.70Q538.60 98.70 543.14 91.58L543.14 91.58Q543.71 90.71 544.14 90.21Q544.58 89.70 545.15 89.70L545.15 89.70Q545.87 89.70 545.87 90.57L545.87 90.57Q545.87 91.07 545.76 91.36Q545.66 91.65 545.58 91.79L545.58 91.79Q543.14 95.97 539.25 98.45Q535.36 100.94 531.04 100.94ZM527.22 83.80L527.22 83.80Q531.83 83.80 535.43 82L535.43 82Q539.61 79.98 539.61 76.74L539.61 76.74Q539.61 73.65 535.22 73.65L535.22 73.65Q531.26 73.65 527.87 76.60L527.87 76.60Q524.85 79.19 523.26 83.15L523.26 83.15Q524.92 83.80 527.22 83.80ZM545.94 119.44L545.94 119.44Q541.84 119.44 541.84 115.84L541.84 115.84Q541.84 111.74 550.55 107.13L550.55 107.13Q554.58 105.40 562.29 101.37L562.29 101.37Q563.73 97.34 565.10 91.14L565.10 91.14Q563.08 94.46 560.49 96.69L560.49 96.69Q556.31 100.43 551.49 100.43L551.49 100.43Q548.25 100.43 546.16 98.27L546.16 98.27Q543.93 95.82 543.93 91.14L543.93 91.14Q543.93 84.66 548.54 79.19L548.54 79.19Q553.43 73.36 559.70 73.36L559.70 73.36Q563.22 73.36 565.10 75.12Q566.97 76.89 566.97 79.34L566.97 79.34Q566.97 81.71 565.31 83.51Q563.66 85.31 560.92 85.31L560.92 85.31Q558.83 85.31 558.83 84.09L558.83 84.09Q558.83 82.79 560.92 82.79L560.92 82.79Q562.58 82.79 563.62 81.75Q564.66 80.70 564.66 79.34L564.66 79.34Q564.66 75.81 559.84 75.81L559.84 75.81Q554.44 75.81 550.26 80.85L550.26 80.85Q546.38 85.60 546.38 91.22L546.38 91.22Q546.38 98.06 551.56 98.06L551.56 98.06Q556.38 98.06 560.63 93.16L560.63 93.16Q563.66 89.63 566.10 83.30L566.10 83.30Q566.46 81.78 567.62 79.26L567.62 79.26Q567.98 78.69 568.55 78.69L568.55 78.69Q569.92 78.69 569.92 79.91L569.92 79.91L569.20 83.66Q568.70 86.18 567.80 90.03Q566.90 93.88 565.67 99.06L565.67 99.06Q567.11 97.98 568.88 96.51Q570.64 95.03 573.23 91.50L573.23 91.50Q573.45 91.14 574.10 90.32Q574.74 89.49 575.25 89.49L575.25 89.49Q576.04 89.49 576.04 90.28L576.04 90.28Q576.04 90.64 576.00 91Q575.97 91.36 575.68 91.79L575.68 91.79Q573.95 94.46 571.11 97.26Q568.26 100.07 564.66 102.30L564.66 102.30Q559.98 112.74 552.50 117.50L552.50 117.50Q549.62 119.44 545.94 119.44ZM546.38 117.50L546.38 117.50Q548.10 117.50 550.84 115.84L550.84 115.84Q556.53 112.31 560.42 105.18L560.42 105.18Q558.83 105.90 556.56 106.95Q554.30 107.99 551.20 109.43L551.20 109.43Q544.58 112.82 544.58 115.98L544.58 115.98Q544.58 117.50 546.38 117.50ZM581.22 100.43L581.22 100.43Q574.17 100.43 574.17 93.02L574.17 93.02Q574.17 89.70 575.75 84.88L575.75 84.88Q576.40 82.86 577.05 80.85Q577.70 78.83 578.42 76.82L578.42 76.82Q579.21 74.08 579.21 72.86L579.21 72.86Q579.21 71.49 580.50 71.49L580.50 71.49Q581.73 71.49 581.73 73.36L581.73 73.36Q581.73 74.80 579.14 82.50L579.14 82.50Q576.62 90.21 576.62 93.45L576.62 93.45Q576.62 97.98 581.30 97.98L581.30 97.98Q589.50 97.98 595.19 77.25L595.19 77.25Q595.55 75.59 596.70 72.71L596.70 72.71Q597.06 72.06 597.64 72.06L597.64 72.06Q598.94 72.06 598.94 73.29L598.94 73.29Q598.94 73.50 598.50 75.38L598.50 75.38Q597.28 80.42 596.63 84.38Q595.98 88.34 595.98 91.29L595.98 91.29Q595.98 98.13 599.44 98.13L599.44 98.13Q601.67 98.13 603.69 96.36Q605.70 94.60 607.65 91.58L607.65 91.58Q608.08 90.93 608.58 90.42Q609.09 89.92 609.52 89.92L609.52 89.92Q610.53 89.92 610.53 90.50L610.53 90.50Q610.53 90.71 610.38 91.18Q610.24 91.65 610.10 91.79L610.10 91.79Q608.30 95.39 605.42 97.88Q602.54 100.36 599.51 100.36L599.51 100.36Q593.61 100.36 593.61 90.78L593.61 90.78Q593.61 90.21 593.61 89.56Q593.61 88.91 593.68 88.26L593.68 88.26Q588.42 100.43 581.22 100.43ZM615.35 101.15L615.35 101.15Q609.38 101.15 608.87 92.94L608.87 92.94Q608.51 86.82 612.62 74.51L612.62 74.51Q616.29 63.57 619.89 57.09L619.89 57.09Q624.14 49.38 627.95 49.38L627.95 49.38Q631.19 49.38 631.19 54.57L631.19 54.57Q631.19 60.04 627.02 67.31L627.02 67.31Q620.39 78.83 612.33 85.38L612.33 85.38Q611.97 87.26 611.75 88.88Q611.54 90.50 611.54 91.94L611.54 91.94Q611.54 98.78 615.78 98.78L615.78 98.78Q618.30 98.78 620.72 97.37Q623.13 95.97 626.08 91.58L626.08 91.58Q626.30 91.29 626.98 90.39Q627.66 89.49 628.17 89.49L628.17 89.49Q628.89 89.49 628.89 90.42L628.89 90.42Q628.89 90.57 628.82 91Q628.74 91.43 628.53 91.79L628.53 91.79Q627.38 94.02 625.50 96.18Q623.63 98.34 621.08 99.75Q618.52 101.15 615.35 101.15ZM613.48 81.06L613.48 81.06Q619.96 74.44 624.78 66.02L624.78 66.02Q628.82 58.96 628.82 54.06L628.82 54.06Q628.82 51.76 627.81 51.76L627.81 51.76Q627.09 51.76 625.86 52.98L625.86 52.98Q623.34 55.72 620.46 62.34L620.46 62.34Q618.66 66.38 616.94 71.06Q615.21 75.74 613.48 81.06ZM651.14 100.50L651.14 100.50Q648.47 100.50 646.67 98.88Q644.87 97.26 645.16 94.17L645.16 94.17Q640.77 100.43 634.58 100.43L634.58 100.43Q630.62 100.43 628.67 97.34L628.67 97.34Q627.09 94.89 627.09 90.71L627.09 90.71Q627.09 89.92 627.16 89.09Q627.23 88.26 627.38 87.47L627.38 87.47Q627.88 84.59 629.32 81.89Q630.76 79.19 633.06 76.53L633.06 76.53Q638.25 70.70 643.79 70.70L643.79 70.70Q646.74 70.70 648.69 72.39Q650.63 74.08 650.63 77.10L650.63 77.10Q650.63 78.33 649.98 79.48L649.98 79.48Q651.50 79.55 651.21 80.85L651.21 80.85L648.90 87.40Q647.75 90.64 647.75 93.30L647.75 93.30Q647.75 95.75 648.80 97.12Q649.84 98.49 651.64 98.49L651.64 98.49Q652.65 98.49 653.87 97.91Q655.10 97.34 656.68 95.97L656.68 95.97Q657.76 95.03 658.73 93.88Q659.70 92.73 660.42 91.58L660.42 91.58Q660.86 90.93 661.36 90.32Q661.86 89.70 662.37 89.70L662.37 89.70Q663.23 89.70 663.23 90.64L663.23 90.64Q663.23 91 663.12 91.32Q663.02 91.65 662.87 91.79L662.87 91.79Q661.94 93.30 660.78 94.74Q659.63 96.18 658.34 97.41L658.34 97.41Q656.61 98.99 654.74 99.75Q652.86 100.50 651.14 100.50ZM629.54 91.07L629.54 91.07Q629.54 97.98 634.86 97.98L634.86 97.98Q639.40 97.98 642.71 93.66L642.71 93.66Q643.72 92.30 644.80 90.21Q645.88 88.12 646.89 85.31L646.89 85.31Q647.18 84.59 647.50 83.62Q647.82 82.65 648.33 81.42L648.33 81.42Q646.89 82.50 645.38 82.50L645.38 82.50Q642.78 82.50 642.78 81.06L642.78 81.06Q642.78 79.84 644.01 79.84L644.01 79.84Q644.22 79.84 644.62 79.95Q645.02 80.06 645.23 80.06L645.23 80.06Q646.31 80.06 647.25 79.12Q648.18 78.18 648.18 77.10L648.18 77.10Q648.18 73.14 643.72 73.14L643.72 73.14Q639.26 73.14 634.79 78.33L634.79 78.33Q630.54 83.08 629.82 87.90L629.82 87.90Q629.68 88.70 629.61 89.49Q629.54 90.28 629.54 91.07ZM679.72 100.72L679.72 100.72Q677.34 100.72 675.80 98.96Q674.25 97.19 674.25 93.88L674.25 93.88Q674.25 87.83 679.36 78.40L679.36 78.40Q677.20 79.19 675.47 79.19L675.47 79.19Q671.94 79.19 669.28 76.31L669.28 76.31Q668.85 78.69 667.73 81.53Q666.62 84.38 665.32 87.08Q664.02 89.78 662.87 91.79L662.87 91.79Q662.58 92.37 662.15 92.51Q661.72 92.66 661.50 92.66L661.50 92.66Q660.42 92.66 660.42 91.58L660.42 91.58Q661.86 89.27 663.30 86.21Q664.74 83.15 666.00 79.77Q667.26 76.38 667.91 73.22L667.91 73.22Q667.48 71.49 667.48 69.33L667.48 69.33Q667.48 65.80 669.06 65.80L669.06 65.80Q670.79 65.80 670.79 69.33L670.79 69.33Q670.79 70.12 670.68 71.13Q670.58 72.14 670.43 73.29L670.43 73.29Q670.72 74.80 672.27 75.74Q673.82 76.67 675.54 76.67L675.54 76.67Q677.99 76.67 681.81 74.15L681.81 74.15Q682.60 73.58 682.74 73.58L682.74 73.58Q684.11 73.58 684.11 74.87L684.11 74.87Q684.11 75.02 684.08 75.16Q684.04 75.30 683.97 75.45L683.97 75.45Q682.17 78.54 680.73 81.39Q679.29 84.23 678.21 86.97L678.21 86.97Q676.77 90.64 676.77 93.66L676.77 93.66Q676.77 98.27 679.79 98.27L679.79 98.27Q682.17 98.27 684.15 96.15Q686.13 94.02 687.71 91.58L687.71 91.58Q688.07 91 688.76 90.06Q689.44 89.13 689.94 89.13L689.94 89.13Q690.30 89.13 690.48 89.27Q690.66 89.42 690.66 89.99L690.66 89.99Q690.66 90.35 690.48 91Q690.30 91.65 690.16 91.79L690.16 91.79Q688.22 95.32 685.73 98.02Q683.25 100.72 679.72 100.72ZM689.30 102.66L689.30 102.66Q687.93 102.66 687.93 101.44L687.93 101.44Q687.93 100.22 689.01 100.22L689.01 100.22Q689.37 100.22 689.51 100.25Q689.66 100.29 689.58 100.29L689.58 100.29Q691.31 100.29 693.83 98.06L693.83 98.06Q702.76 90.64 705.57 75.45L705.57 75.45Q705.93 73.50 706.11 71.67Q706.29 69.83 706.29 68.10L706.29 68.10Q706.29 62.56 704.49 58.10L704.49 58.10Q702.11 52.12 697.65 52.12L697.65 52.12Q696.42 52.12 696.42 50.90L696.42 50.90Q696.42 49.67 697.79 49.67L697.79 49.67Q701.82 49.67 704.70 53.20L704.70 53.20Q707.08 56.08 708.16 60.33L708.16 60.33Q709.17 64.00 709.17 68.18L709.17 68.18Q709.17 71.78 708.52 75.38L708.52 75.38Q706.79 85.02 701.82 92.58L701.82 92.58Q699.38 96.26 696.50 98.92L696.50 98.92Q692.54 102.66 689.30 102.66Z"/></svg>